<?xml version="1.0" standalone="no"?>
<!DOCTYPE svg PUBLIC "-//W3C//DTD SVG 1.1//EN" "http://www.w3.org/Graphics/SVG/1.1/DTD/svg11.dtd" >
<svg>
<metadata>
Created by FontForge 20090622 at Mon Oct 10 10:48:19 2016
 By ffonts
Created by Fabian De Smet
</metadata>
<defs>
<font id="Butler-Black" horiz-adv-x="613" >
  <font-face 
    font-family="Butler"
    font-weight="900"
    font-stretch="normal"
    units-per-em="1000"
    panose-1="2 7 8 3 8 7 6 2 3 3"
    ascent="735"
    descent="-265"
    x-height="462"
    cap-height="704"
    bbox="-146 -361 1244 981"
    underline-thickness="50"
    underline-position="-50"
    stemh="18"
    stemv="138"
    unicode-range="U+0020-U+FB02"
  />
<missing-glyph horiz-adv-x="507" 
d="M-1 704h508v-704h-508v704zM75 144l133 208l-133 209v-417zM253 423l132 204h-263zM385 76l-132 207l-131 -207h263zM298 352l134 -208v417z" />
    <glyph glyph-name="f_i" unicode="fi" horiz-adv-x="645" 
d="M608 8v-8h-250v8c38 11 39 54 39 105v260c0 35 2 80 -36 80h-108v-340c0 -55 5 -95 41 -105v-8h-250v8c38 11 39 54 39 105v340h-65v9h65v0c0 224 133 283 262 283c68 0 173 -23 204 -78c15 -28 13 -68 -5 -98c-26 -38 -79 -49 -118 -24c-40 26 -51 78 -24 118
c11 19 29 31 50 36c25 6 -29 37 -108 37c-83 0 -91 -109 -91 -274v0h108c143 0 206 30 206 30v-379c0 -55 5 -96 41 -105z" />
    <glyph glyph-name="f_l" unicode="fl" horiz-adv-x="621" 
d="M606 8v-8h-250v8c38 11 39 54 39 105v519c0 35 -3 58 -35 72c-98 27 -117 -57 -117 -242v0h107v-9h-107v-340c0 -55 5 -95 41 -105v-8h-250v8c38 11 39 54 39 105v340h-65v9h65v80c0 177 122 203 171 203c0 0 75 4 116 -32l205 33v-633c0 -55 5 -96 41 -105z" />
    <glyph glyph-name=".notdef" horiz-adv-x="507" 
d="M-1 704h508v-704h-508v704zM75 144l133 208l-133 209v-417zM253 423l132 204h-263zM385 76l-132 207l-131 -207h263zM298 352l134 -208v417z" />
    <glyph glyph-name="space" unicode=" " horiz-adv-x="280" 
 />
    <glyph glyph-name="exclam" unicode="!" horiz-adv-x="378" 
d="M245 260h-115l-37 486h192zM283 88c0 53 -43 96 -96 96s-96 -43 -96 -96c0 -54 43 -97 96 -97s96 43 96 97z" />
    <glyph glyph-name="quotedbl" unicode="&#x22;" horiz-adv-x="602" 
d="M131 377l-30 327h166l-28 -327h-108zM363 377l-30 327h167l-29 -327h-108z" />
    <glyph glyph-name="numbersign" unicode="#" horiz-adv-x="781" 
d="M611 577h106v-119h-133l-33 -139h103v-119h-130l-46 -200h-116l46 200h-136l-46 -200h-116l46 200h-112v119h140l32 139h-109v119h136l40 169h116l-39 -169h135l40 169h116zM435 319l33 139h-136l-32 -139h135z" />
    <glyph glyph-name="dollar" unicode="$" horiz-adv-x="584" 
d="M290 0c107 0 137 133 17 222l-17 11v-233zM281 492v212c-108 0 -140 -120 -10 -205zM425 397c132 -87 167 -215 92 -324c0 0 -54 -82 -227 -82v-122h-9v122c-188 2 -260 51 -260 51v192h9c16 -68 99 -227 251 -234v238l-128 81c-142 89 -177 211 -92 318
c0 0 56 76 220 76v122h9v-122c164 -2 227 -46 227 -46v-168h-9c-20 72 -65 200 -218 205v-218z" />
    <glyph glyph-name="percent" unicode="%" horiz-adv-x="1121" 
d="M311 679c115 0 169 -84 169 -183c0 -98 -54 -176 -169 -176c-116 0 -170 78 -170 176c0 99 54 183 170 183zM311 329c47 0 50 31 50 167c0 137 -5 174 -50 174c-47 0 -51 -37 -51 -174c0 -136 5 -167 51 -167zM810 384c115 0 170 -83 170 -182s-55 -176 -170 -176
c-116 0 -170 77 -170 176s54 182 170 182zM810 35c48 0 50 30 50 167c0 136 -5 173 -50 173c-47 0 -51 -37 -51 -173c0 -137 5 -167 51 -167zM791 704h100l-551 -704h-99z" />
    <glyph glyph-name="ampersand" unicode="&#x26;" horiz-adv-x="820" 
d="M382 699c-51 0 -108 -66 -49 -152l60 -90c81 53 80 130 80 146c0 55 -42 96 -91 96zM261 149c46 -59 132 -116 172 -39l-180 254l-14 -9c-36 -28 -51 -114 22 -206zM697 77c29 0 52 14 52 52l10 -1c1 -79 -42 -137 -139 -137c-49 0 -82 7 -116 35c-21 17 -41 41 -66 76
c-34 -115 -250 -164 -337 -35c-95 142 54 252 131 298l14 8l-32 47c-112 148 -58 323 123 323c74 0 157 -45 157 -141c0 -34 -15 -98 -96 -153l132 -197c40 79 84 107 132 122c26 8 61 6 86 -14c34 -29 39 -81 9 -117c-29 -34 -81 -39 -117 -9c-16 14 -28 33 -28 55
c-1 27 -54 2 -76 -46c31 -47 53 -81 72 -105c39 -52 58 -61 89 -61z" />
    <glyph glyph-name="quotesingle" unicode="'" horiz-adv-x="312" 
d="M105 377l-30 327h166l-28 -327h-108z" />
    <glyph glyph-name="parenleft" unicode="(" horiz-adv-x="372" 
d="M78 254c5 40 -18 284 279 491l14 -13c-130 -153 -120 -481 -120 -481s-10 -328 118 -444l-14 -13c-294 166 -273 427 -277 460z" />
    <glyph glyph-name="parenright" unicode=")" horiz-adv-x="370" 
d="M14 746c297 -207 274 -451 279 -491c-4 -33 17 -294 -277 -460l-14 13c128 116 118 444 118 444s10 328 -120 481z" />
    <glyph glyph-name="asterisk" unicode="*" horiz-adv-x="566" 
d="M498 498l-178 -13l137 -114l-110 -79l-67 165l-66 -165l-109 79l136 114l-177 13l42 128l150 -94l-43 172h135l-44 -172l152 94z" />
    <glyph glyph-name="plus" unicode="+" horiz-adv-x="715" 
d="M657 376v-133h-234v-243h-133v243h-234v133h234v243h133v-243h234z" />
    <glyph glyph-name="comma" unicode="," horiz-adv-x="322" 
d="M234 169c63 -63 7 -173 -28 -222c-14 -22 -47 -53 -94 -80l-7 10c54 43 72 112 54 115c-25 2 -50 10 -70 29c-41 41 -41 106 -1 148c41 40 106 40 146 0z" />
    <glyph glyph-name="hyphen" unicode="-" horiz-adv-x="444" 
d="M379 185h-315v138h315v-138z" />
    <glyph glyph-name="period" unicode="." horiz-adv-x="323" 
d="M268 94c0 -58 -46 -103 -102 -103c-58 0 -104 45 -104 103c0 57 46 104 104 104c56 0 102 -47 102 -104z" />
    <glyph glyph-name="slash" unicode="/" horiz-adv-x="465" 
d="M448 725l-308 -746h-126l308 746h126z" />
    <glyph glyph-name="zero" unicode="0" horiz-adv-x="740" 
d="M674 346c0 -198 -99 -355 -319 -355c-221 0 -320 157 -320 355c0 199 99 367 320 367c220 0 319 -168 319 -367zM436 346c0 275 -3 358 -81 358c-82 0 -82 -83 -82 -358c0 -274 0 -346 82 -346c76 0 81 72 81 346z" />
    <glyph glyph-name="one" unicode="1" horiz-adv-x="423" 
d="M327 86c0 -50 2 -78 37 -78v-8h-261v8c41 0 45 31 45 78v435c0 94 -98 20 -98 20l-5 7l189 165h93v-627z" />
    <glyph glyph-name="two" unicode="2" horiz-adv-x="529" 
d="M480 213h8l-58 -213h-398l201 267c239 354 -189 368 -155 179l-16 -9c-65 122 24 276 197 276c100 0 191 -88 191 -179c0 -154 -207 -277 -261 -346l-25 -32h216c34 0 78 17 100 57z" />
    <glyph glyph-name="three" unicode="3" horiz-adv-x="561" 
d="M514 215c0 -197 -166 -224 -295 -224c-88 0 -142 28 -175 85c-13 25 -13 63 7 90c27 40 82 49 120 21c39 -29 49 -82 21 -121c-15 -20 -32 -31 -55 -34c-12 0 1 -32 81 -32c75 0 111 80 91 193c-11 63 -34 159 -156 159v9c132 22 136 163 72 209c-44 31 -135 20 -143 -40
l-9 -2c-24 79 36 185 183 185c193 0 268 -240 79 -331c109 -4 179 -89 179 -167z" />
    <glyph glyph-name="four" unicode="4" horiz-adv-x="558" 
d="M525 196h-84v-59c0 -126 3 -128 45 -128v-9h-270v9c42 0 45 4 45 123v64h-232v17l366 500l46 -9v-438h84v-70zM261 266v250l-142 -194c-40 -55 -26 -56 -6 -56h148z" />
    <glyph glyph-name="five" unicode="5" horiz-adv-x="577" 
d="M96 446c294 49 437 -82 427 -240c-9 -156 -135 -215 -271 -215c-103 0 -150 31 -175 51c-23 20 -36 57 -29 91c12 47 61 77 110 66c47 -11 77 -59 66 -108c-6 -26 -18 -44 -38 -55c-11 -6 -7 -36 66 -36c88 0 142 88 116 178c-15 52 -77 147 -310 116l79 410h371
l-48 -167h-347z" />
    <glyph glyph-name="six" unicode="6" 
d="M376 438c166 0 199 -110 199 -220c0 -155 -106 -227 -258 -227c-183 0 -275 128 -275 327c0 246 116 395 314 395c113 0 159 -66 166 -77c16 -26 17 -66 -3 -95c-26 -44 -82 -56 -126 -29c-43 26 -55 84 -28 126c13 21 33 37 56 40c8 2 -4 26 -65 26
c-72 0 -110 -93 -111 -349c6 40 62 83 131 83zM317 0c75 0 71 43 71 198c0 142 -17 198 -67 198c-32 0 -67 -21 -76 -66c3 -217 -3 -330 72 -330z" />
    <glyph glyph-name="seven" unicode="7" horiz-adv-x="571" 
d="M88 704h451l-98 -169c-90 -183 -85 -435 -85 -535h-192c21 165 62 311 266 535h-274c-34 0 -80 -18 -101 -58h-9z" />
    <glyph glyph-name="eight" unicode="8" horiz-adv-x="575" 
d="M277 497l92 -47c23 17 33 59 33 115c0 102 -56 139 -112 139c-49 0 -83 -37 -90 -81c-6 -44 15 -96 77 -126zM321 244l-125 68c-26 -24 -28 -67 -28 -134c0 -124 44 -178 124 -178c63 0 103 41 111 92s-17 113 -82 152zM292 -9c-176 0 -253 60 -253 179
c0 101 82 144 126 160c-71 49 -114 103 -114 193c0 102 84 190 239 190c150 0 209 -63 209 -148c0 -88 -96 -114 -120 -120c121 -54 168 -148 168 -238c0 -130 -72 -216 -255 -216z" />
    <glyph glyph-name="nine" unicode="9" horiz-adv-x="606" 
d="M251 267c-182 0 -213 110 -213 220c0 155 106 226 258 226c196 0 275 -127 275 -326c0 -246 -49 -396 -314 -396c-113 0 -160 67 -166 78c-16 26 -17 66 2 95c27 44 83 56 127 29c42 -27 55 -84 28 -126c-14 -21 -33 -37 -56 -40c-9 -2 3 -27 65 -27
c125 0 109 99 111 354c-6 -39 -61 -87 -117 -87zM300 704c-64 0 -75 -42 -75 -197c0 -131 14 -198 59 -198c50 0 74 24 84 69c-3 217 -1 326 -68 326z" />
    <glyph glyph-name="colon" unicode=":" horiz-adv-x="312" 
d="M259 386c0 -57 -46 -103 -102 -103c-58 0 -104 46 -104 103s46 104 104 104c56 0 102 -47 102 -104zM259 94c0 -58 -46 -103 -102 -103c-58 0 -104 45 -104 103c0 57 46 104 104 104c56 0 102 -47 102 -104z" />
    <glyph glyph-name="semicolon" unicode=";" horiz-adv-x="305" 
d="M256 386c0 -57 -46 -103 -102 -103c-58 0 -104 46 -104 103c0 58 46 104 104 104c56 0 102 -46 102 -104zM227 167c63 -63 7 -173 -28 -222c-14 -22 -47 -53 -94 -80l-7 10c54 43 72 113 54 115c-25 2 -50 10 -70 29c-41 41 -41 106 -1 148c41 40 106 40 146 0z" />
    <glyph glyph-name="less" unicode="&#x3c;" horiz-adv-x="600" 
d="M250 266l303 -149v-133l-507 260v43l507 260v-134z" />
    <glyph glyph-name="equal" unicode="=" 
d="M567 319h-511v120h511v-120zM567 94h-511v120h511v-120z" />
    <glyph glyph-name="greater" unicode="&#x3e;" horiz-adv-x="600" 
d="M47 117l303 149l-303 147v134l507 -260v-43l-507 -260v133z" />
    <glyph glyph-name="question" unicode="?" horiz-adv-x="621" 
d="M540 553c6 -146 -101 -210 -159 -225c-54 -14 -105 -44 -100 -104l-9 -1c-4 27 -36 81 21 141c44 47 54 109 46 189c-7 89 -78 166 -159 134c-35 -14 -39 -54 -23 -52c20 3 40 -5 57 -19c35 -31 38 -82 10 -117c-29 -34 -82 -36 -117 -6c-24 20 -30 51 -29 79
c-1 38 35 93 97 121c161 72 358 9 365 -140zM373 78c0 49 -40 88 -88 88s-88 -39 -88 -88s40 -87 88 -87s88 38 88 87z" />
    <glyph glyph-name="at" unicode="@" horiz-adv-x="985" 
d="M580 635c192 -12 386 -111 358 -386c-22 -210 -185 -261 -264 -258c-81 3 -112 42 -107 83c-9 -13 -56 -83 -139 -83c-92 0 -123 121 -113 191c11 71 62 233 223 233c59 0 87 -45 87 -47l5 26l123 -3s-53 -257 -61 -293c-4 -20 -16 -40 14 -40c43 0 139 56 146 208
c6 152 -20 266 -259 290c-254 25 -394 -159 -417 -330c0 0 -57 -325 253 -369c141 -20 247 45 247 45l5 -6s-78 -83 -290 -79c-145 2 -368 96 -352 372c17 293 244 464 541 446zM575 112c6 25 24 111 35 178c7 43 11 99 -29 101c-54 3 -93 -88 -113 -171
c-28 -117 8 -154 49 -157c44 -4 58 49 58 49z" />
    <glyph glyph-name="A" unicode="A" horiz-adv-x="762" 
d="M382 203l-100 225l-89 -225h189zM181 194l202 510h5l270 -613c36 -80 70 -81 90 -83v-8h-350v8c80 0 20 117 20 117l-32 69h-196c-20 -46 -2 -186 118 -186v-8h-288v8c30 2 84 10 161 186z" />
    <glyph glyph-name="B" unicode="B" horiz-adv-x="751" 
d="M313 695h-12v-333h29c53 0 113 16 113 171c0 153 -83 162 -130 162zM430 361c65 0 265 -11 265 -182c0 -175 -182 -179 -355 -179h-303v9c43 0 58 60 58 128v429c0 62 -14 130 -58 130v8h303c139 0 308 -1 308 -177c0 -149 -198 -166 -218 -166zM315 9
c87 0 163 -3 163 174c0 167 -90 170 -156 170h-21v-344h14z" />
    <glyph glyph-name="C" unicode="C" horiz-adv-x="722" 
d="M660 240h8l10 -202c-27 -18 -128 -47 -234 -47c-214 0 -404 135 -404 361s190 361 404 361c129 0 210 -27 234 -46l-10 -202h-8c-30 207 -143 239 -216 239c-111 0 -158 -78 -158 -352c0 -275 50 -352 158 -352c68 0 182 41 216 240z" />
    <glyph glyph-name="D" unicode="D" horiz-adv-x="816" 
d="M333 9c118 0 183 14 183 340c0 320 -60 346 -183 346h-44v-686h44zM333 704c199 0 434 -62 434 -355c0 -292 -235 -349 -434 -349h-296v9c43 0 59 60 59 128v429c0 62 -15 130 -59 130v8h296z" />
    <glyph glyph-name="E" unicode="E" horiz-adv-x="683" 
d="M602 196h9v-196h-584v9c42 0 58 60 58 128v429c0 62 -14 130 -58 130v8h571v-205h-9c0 195 -273 196 -273 196h-36v-335h81c1 0 107 -3 118 118h9v-245h-9c-11 120 -117 118 -118 118h-81v-342h36s286 -11 286 187z" />
    <glyph glyph-name="F" unicode="F" horiz-adv-x="630" 
d="M376 9v-9h-351v9c42 0 58 60 58 128v429c0 62 -14 130 -58 130v8h581v-205h-9c0 195 -282 196 -282 196h-36v-335h89c1 0 107 -3 119 118h9v-245h-9c-12 120 -118 118 -119 118h-89v-228c0 -123 97 -114 97 -114z" />
    <glyph glyph-name="G" unicode="G" horiz-adv-x="771" 
d="M461 263h282v-9c-69 0 -64 -6 -64 -206c-50 -35 -149 -57 -256 -57c-216 0 -384 149 -384 361c0 213 168 361 384 361c137 0 191 -15 253 -56l-19 -197h-8c0 232 -161 244 -226 244c-114 0 -138 -77 -138 -352s26 -352 138 -352c77 0 108 38 108 135
c0 109 -15 119 -70 119v9z" />
    <glyph glyph-name="H" unicode="H" horiz-adv-x="757" 
d="M737 696c-45 0 -44 -76 -44 -86v-514c0 -16 -3 -87 44 -87v-9h-258v9c26 0 24 71 24 87v236h-242v-236c0 -16 -3 -87 24 -87v-9h-259v9c49 0 45 71 45 87v514c0 10 3 86 -45 86v8h259v-8c-30 0 -24 -76 -24 -86v-269h242v269c0 10 4 86 -24 86v8h258v-8z" />
    <glyph glyph-name="I" unicode="I" horiz-adv-x="405" 
d="M39 704h330v-8c-42 0 -65 -1 -65 -89v-494c0 -95 23 -104 65 -104v-9h-330v9c42 0 65 9 65 104v494c0 88 -22 89 -65 89v8z" />
    <glyph glyph-name="J" unicode="J" horiz-adv-x="422" 
d="M94 704h290v-8c-45 0 -47 2 -47 -62v-452c0 -241 -200 -325 -363 -349l-3 8c86 31 165 124 165 341v330c0 184 0 184 -42 184v8z" />
    <glyph glyph-name="K" unicode="K" horiz-adv-x="846" 
d="M706 82c52 -69 75 -71 101 -73v-9h-178c-106 0 -118 9 -223 161l-101 141l170 180c72 78 53 214 -10 214v8h330v-8c-61 0 -191 -87 -353 -262zM326 704h-286v-8c43 0 41 -7 41 -69v-554c0 -68 1 -64 -41 -64v-9h283v9c-43 0 -47 -4 -47 64v554c0 73 6 69 50 69v8z" />
    <glyph glyph-name="L" unicode="L" horiz-adv-x="637" 
d="M563 217h9v-217h-530v9c43 0 41 17 41 85v544c0 61 -6 58 -49 58v8h299v-8c-43 0 -51 1 -51 -71v-616v0c86 0 281 22 281 208z" />
    <glyph glyph-name="M" unicode="M" horiz-adv-x="1029" 
d="M588 244l173 460h244v-9c-49 0 -47 -13 -47 -74v-528c0 -68 8 -84 57 -84v-9h-305v9c47 0 51 16 51 84v584l-259 -686h-9l-324 602v-328c0 -129 37 -256 153 -256v-9h-312v9c107 0 150 125 150 256v343c-39 69 -71 85 -99 87v9h285z" />
    <glyph glyph-name="N" unicode="N" horiz-adv-x="844" 
d="M676 0h-110l-377 537v-312c0 -80 5 -216 151 -216v-9h-318v9c138 0 158 137 158 216v324l-47 67c-60 79 -99 78 -125 80v8h319l340 -491v267c0 93 -32 216 -143 216v8h303v-8c-124 0 -151 -123 -151 -216v-480z" />
    <glyph glyph-name="O" unicode="O" horiz-adv-x="812" 
d="M406 0c118 0 122 72 122 347c0 274 -4 357 -122 357c-119 0 -124 -83 -124 -357c0 -275 5 -347 124 -347zM406 713c220 0 365 -168 365 -366c0 -199 -145 -356 -365 -356s-365 157 -365 356c0 198 145 366 365 366z" />
    <glyph glyph-name="P" unicode="P" horiz-adv-x="710" 
d="M278 312v383v0c136 0 164 9 164 -193c0 -193 -17 -190 -164 -190zM278 137v166v0c199 0 396 12 396 199c0 189 -197 202 -396 202h-253v-8c44 0 52 -24 52 -86v-515c0 -68 -4 -86 -46 -86v-9h329v9c-57 0 -82 -1 -82 128z" />
    <glyph glyph-name="Q" unicode="Q" horiz-adv-x="804" 
d="M653 -112l-171 58s-179 65 -359 -87l5 -7c22 13 49 29 116 4l86 -36c164 -69 255 -96 340 -30l125 108l-5 7c-22 -13 -58 -44 -137 -17zM406 0c118 0 122 72 122 347c0 274 -4 357 -122 357c-119 0 -124 -83 -124 -357c0 -275 5 -347 124 -347zM406 713
c220 0 365 -168 365 -366c0 -199 -145 -356 -365 -356s-365 157 -365 356c0 198 145 366 365 366z" />
    <glyph glyph-name="R" unicode="R" horiz-adv-x="773" 
d="M304 334c130 0 143 -2 143 179c0 191 -26 182 -143 182h-31v-361h31zM670 127c20 -76 73 -116 99 -118v-9h-199c-71 0 -93 45 -117 231c-13 100 -133 94 -133 94h-47v-212c0 -98 4 -104 46 -104v-9h-299v9c43 0 52 2 52 104v494c0 62 -8 89 -52 89v8h284
c199 0 378 -24 378 -191c0 -150 -138 -181 -234 -181c115 0 173 -25 222 -205z" />
    <glyph glyph-name="S" unicode="S" horiz-adv-x="619" 
d="M439 397c132 -87 167 -215 92 -324c0 0 -54 -82 -227 -82c-194 0 -269 51 -269 51v192h9c16 -68 103 -234 260 -234c107 0 137 133 17 222l-154 97c-142 89 -177 211 -92 318c0 0 55 76 219 76c171 0 237 -46 237 -46v-168h-9c-20 72 -68 205 -228 205
c-108 0 -139 -120 -9 -205z" />
    <glyph glyph-name="T" unicode="T" horiz-adv-x="762" 
d="M20 704h715v-225h-8c-5 115 -153 216 -236 216h-11v-582c0 -68 5 -104 45 -104v-9h-295v9c40 0 45 36 45 104v582h-11c-84 0 -231 -101 -236 -216h-8v225z" />
    <glyph glyph-name="U" unicode="U" horiz-adv-x="736" 
d="M320 -9c-136 0 -268 72 -268 235v381c0 61 4 88 -40 88v9h286v-9c-43 0 -41 -16 -41 -88v-388c0 -118 62 -168 157 -168c107 0 161 74 161 168v260c0 82 -26 216 -121 216v9h262l1 -9c-112 0 -133 -134 -133 -216v-260c0 -132 -88 -228 -264 -228z" />
    <glyph glyph-name="V" unicode="V" horiz-adv-x="807" 
d="M480 704h303v-8c-43 0 -107 -31 -185 -207l-197 -489h-29l-282 615c-36 80 -51 79 -79 81v8h333v-8c-69 0 -14 -116 -14 -116l155 -345l103 254c30 74 12 207 -108 207v8z" />
    <glyph glyph-name="W" unicode="W" horiz-adv-x="1141" 
d="M843 704h284v-8c-40 0 -101 -31 -174 -207l-175 -489h-36l-193 448l-160 -448h-36l-265 615c-34 80 -48 79 -74 81v8h312v-8c-64 0 -13 -116 -13 -116l151 -343l80 223l-67 155c-34 80 -48 79 -74 81v8h312v-8c-64 0 -13 -116 -13 -116l150 -344l90 253
c25 71 3 207 -99 207v8z" />
    <glyph glyph-name="X" unicode="X" horiz-adv-x="836" 
d="M704 105c55 -73 88 -95 114 -97v-8h-340v8c56 0 -6 95 -6 95l-114 166l-52 -73c-42 -60 -54 -188 48 -188v-8h-308v8c24 2 96 -8 254 193l53 75l-224 321c-60 78 -89 96 -115 99v8h353v-8c-32 0 -64 -19 -16 -86l129 -181l52 73c32 44 88 194 -34 194v8h277v-8
c-25 -3 -95 -2 -237 -200l-54 -75z" />
    <glyph glyph-name="Y" unicode="Y" horiz-adv-x="782" 
d="M473 335c0 0 50 99 78 160c23 48 47 201 -76 201v8h290v-8c-62 0 -135 -63 -206 -205l-81 -164v-214c0 -68 -7 -104 35 -104v-9h-269v9c42 0 37 36 37 104v163l-195 342c-44 76 -51 76 -77 79v7h301v-7c-40 0 -51 1 17 -114z" />
    <glyph glyph-name="Z" unicode="Z" horiz-adv-x="672" 
d="M636 704l-355 -695h10c193 0 310 47 330 224h8l-15 -233h-589l382 695h-47c-173 0 -288 -73 -304 -193h-8l13 202h575z" />
    <glyph glyph-name="bracketleft" unicode="[" horiz-adv-x="376" 
d="M113 735h245v-9c-54 0 -106 -2 -106 -86v-700c0 -73 54 -76 106 -76v-10h-245v881z" />
    <glyph glyph-name="backslash" unicode="\" horiz-adv-x="482" 
d="M325 -20l-311 755h136l311 -755h-136z" />
    <glyph glyph-name="bracketright" unicode="]" horiz-adv-x="376" 
d="M11 735h245v-881h-245v10c52 0 106 3 106 76v700c0 84 -52 84 -106 84v11z" />
    <glyph glyph-name="asciicircum" unicode="^" horiz-adv-x="606" 
d="M330 704l185 -328h-50l-162 141l-159 -141h-55l188 328h53z" />
    <glyph glyph-name="underscore" unicode="_" horiz-adv-x="560" 
d="M0 -49h560v-101h-560v101z" />
    <glyph glyph-name="grave" unicode="`" horiz-adv-x="491" 
d="M196 720l224 -163h-82l-304 113z" />
    <glyph glyph-name="a" unicode="a" horiz-adv-x="567" 
d="M300 90v154c-82 -18 -81 -79 -81 -126c0 0 -1 -66 39 -66c17 0 31 14 42 38zM544 69l6 -5c-14 -44 -66 -73 -129 -73c0 0 -111 0 -120 90c-13 -52 -64 -90 -135 -90c-38 0 -125 17 -125 102c0 100 81 119 259 161v64c0 104 -59 160 -128 124c0 0 -22 -13 12 -25
c17 -6 28 -20 36 -38c15 -37 -2 -77 -39 -93c-36 -14 -77 3 -92 39c-10 26 -5 56 12 74c12 13 30 31 67 51c45 24 94 21 94 21c131 0 204 -82 204 -200v-149s0 -72 48 -70c0 0 25 0 30 17z" />
    <glyph glyph-name="b" unicode="b" horiz-adv-x="663" 
d="M317 0c56 0 99 65 99 225c0 117 -28 216 -100 216c-67 0 -82 -82 -82 -159v-106c0 -114 23 -176 83 -176zM406 471c138 0 211 -108 211 -232c0 -198 -132 -248 -260 -248c-79 0 -126 19 -153 44c-32 -21 -139 -46 -139 -30v627c0 34 -10 49 -51 64v8l220 42v-351
c29 50 79 76 172 76z" />
    <glyph glyph-name="c" unicode="c" horiz-adv-x="515" 
d="M318 471c78 0 129 -34 153 -61c17 -18 23 -49 15 -76c-13 -39 -57 -59 -95 -44c-39 13 -59 56 -44 94c8 20 21 33 38 40c11 4 -2 38 -62 38c-57 0 -82 -82 -82 -216c0 -108 46 -166 130 -166c50 0 87 19 101 53l7 -3c0 -62 -69 -139 -194 -139c-131 0 -240 101 -240 242
c0 137 84 238 273 238z" />
    <glyph glyph-name="d" unicode="d" horiz-adv-x="666" 
d="M432 119v201c0 92 -43 142 -94 142c-49 0 -88 -41 -88 -211c0 -126 26 -197 99 -197c38 0 74 35 83 65zM601 90c0 -49 10 -60 51 -65v-8l-192 -25c-28 -5 -28 18 -28 18v89c-16 -71 -95 -108 -166 -108c-139 0 -219 80 -219 237c0 166 107 243 251 243
c78 0 116 -19 134 -44v205c0 35 -10 49 -51 64v8l220 42v-656z" />
    <glyph glyph-name="e" unicode="e" horiz-adv-x="537" 
d="M289 471c106 0 207 -42 207 -230h-272c0 -152 48 -192 115 -207c50 -11 117 19 137 104l9 -2c-13 -74 -86 -145 -211 -145c-131 0 -237 104 -237 239c0 170 129 241 252 241zM224 250h127c0 126 -13 212 -58 212c-46 0 -69 -116 -69 -212z" />
    <glyph glyph-name="f" unicode="f" horiz-adv-x="388" 
d="M247 113c0 -55 5 -95 41 -105v-8h-250v8c38 11 39 54 39 105v340h-65v9h65c0 234 106 281 235 281c47 0 91 -23 111 -60c12 -22 10 -54 -4 -77c-20 -30 -62 -39 -93 -19s-40 61 -19 93c9 15 23 24 40 28c19 5 16 27 -19 27c-83 0 -81 -98 -81 -273h107v-9h-107v-340z" />
    <glyph glyph-name="g" unicode="g" horiz-adv-x="593" 
d="M511 485c21 5 48 -2 65 -19c24 -25 21 -64 -5 -88c-25 -23 -65 -19 -88 6c-11 13 -18 29 -15 44c2 10 -18 7 -35 -7c25 -25 35 -63 35 -100c0 -53 -30 -150 -207 -150c-41 0 -70 4 -97 13c-27 -16 -68 -59 30 -59h140c64 0 190 -3 166 -194c0 0 -6 -75 -105 -143
c-110 -75 -328 -70 -366 13c-45 98 40 155 89 177c-31 15 -56 41 -56 86c0 0 -3 82 91 123c-83 29 -99 95 -99 134c0 81 45 150 207 150c81 0 136 -18 167 -45c31 38 60 55 83 59zM221 -44c-11 0 -56 1 -95 17c-104 -113 110 -153 110 -153c113 -16 187 0 204 19
c21 23 6 66 6 66s-16 51 -89 51h-136zM261 179c30 0 40 30 40 142s-4 141 -40 141c-37 0 -40 -29 -40 -141s9 -142 40 -142z" />
    <glyph glyph-name="h" unicode="h" horiz-adv-x="594" 
d="M535 114c0 -55 6 -97 41 -106v-8h-250v8c38 11 40 55 40 106v200c0 57 -21 85 -69 84c-24 0 -49 -20 -62 -43v-242c0 -55 5 -95 41 -105v-8h-250v8c38 11 39 54 39 105v519c0 35 -12 49 -53 64v8l223 42v-377c24 56 79 102 136 102c80 0 164 -33 164 -153v-204z" />
    <glyph glyph-name="i" unicode="i" horiz-adv-x="326" 
d="M152 497c-53 0 -95 42 -95 95s42 95 95 95s96 -42 96 -95s-43 -95 -96 -95zM248 113c0 -55 5 -95 41 -105v-8h-250v8c38 11 39 54 39 105v244c0 35 -11 49 -52 64v8l222 42v-358z" />
    <glyph glyph-name="j" unicode="j" horiz-adv-x="314" 
d="M153 499c-53 0 -95 42 -95 95s42 95 95 95s96 -42 96 -95s-43 -95 -96 -95zM29 421v8l219 42v-421c0 -189 -131 -253 -230 -278v8c61 15 61 247 61 247v320c0 34 -9 52 -50 74z" />
    <glyph glyph-name="k" unicode="k" horiz-adv-x="654" 
d="M522 85c33 -46 71 -76 116 -76v-9h-185c-69 0 -78 18 -145 118l-58 87l117 120c44 46 56 129 -7 129v8h272v-8c-57 0 -188 -62 -278 -155zM232 113c0 -55 5 -95 41 -105v-8h-250v8c38 11 39 53 39 105v519c0 35 -12 49 -53 64v8l223 42v-633z" />
    <glyph glyph-name="l" unicode="l" horiz-adv-x="313" 
d="M242 113c0 -55 5 -95 41 -105v-8h-250v8c38 11 39 53 39 105v519c0 35 -12 49 -53 64v8l223 42v-633z" />
    <glyph glyph-name="m" unicode="m" horiz-adv-x="829" 
d="M769 114c0 -55 6 -97 41 -106v-8h-250v8c38 11 40 55 40 106v201c0 57 -10 84 -45 84c-25 0 -46 -21 -59 -45c2 -17 2 -23 2 -35v-205c0 -55 6 -97 41 -106v-8h-250v8c38 11 40 55 40 106v201c0 57 -9 84 -45 84c-22 0 -41 -17 -54 -38v-248c0 -55 5 -95 41 -105v-8h-250
v8c38 11 39 53 39 105v244c0 35 -11 49 -52 64v8l222 42v-95c23 52 67 95 121 95c70 0 131 -25 144 -103c22 58 68 103 127 103c80 0 147 -32 147 -152v-205z" />
    <glyph glyph-name="n" unicode="n" horiz-adv-x="593" 
d="M527 114c0 -55 6 -97 41 -106v-8h-250v8c38 11 40 55 40 106v201c0 57 -21 84 -69 84c-22 0 -45 -18 -59 -39v-247c0 -55 5 -95 41 -105v-8h-250v8c38 11 39 53 39 105v244c0 35 -11 49 -52 64v8l222 42v-97c26 53 79 97 133 97c80 0 164 -32 164 -152v-205z" />
    <glyph glyph-name="o" unicode="o" horiz-adv-x="595" 
d="M299 471c179 0 258 -108 258 -240c0 -131 -79 -240 -258 -240s-258 109 -258 240c0 132 79 240 258 240zM299 0c54 0 55 50 55 231s-1 231 -55 231c-55 0 -56 -50 -56 -231s1 -231 56 -231z" />
    <glyph glyph-name="p" unicode="p" horiz-adv-x="662" 
d="M319 0c56 0 100 65 100 225c0 117 -28 212 -100 212c-59 0 -78 -58 -82 -125v-173c5 -90 29 -139 82 -139zM409 471c137 0 211 -108 211 -232c0 -198 -132 -248 -260 -248c-55 0 -95 9 -123 23v-166c0 -55 5 -94 41 -104v-9h-250v9c38 11 39 53 39 104v509
c0 35 -11 49 -52 64v8l222 42v-78c28 49 79 78 172 78z" />
    <glyph glyph-name="q" unicode="q" horiz-adv-x="658" 
d="M350 25c37 0 82 31 82 70v250c-6 76 -45 117 -92 117c-48 0 -89 -41 -89 -211c0 -126 26 -226 99 -226zM602 -152c0 -55 5 -94 41 -104v-9h-250v9c38 11 39 53 39 104v206c-20 -31 -87 -63 -165 -63c-139 0 -219 80 -219 237c0 166 107 243 251 243c78 0 132 -12 169 -35
c62 39 134 44 134 21v-609z" />
    <glyph glyph-name="r" unicode="r" horiz-adv-x="511" 
d="M462 448c39 -34 44 -94 10 -132c-34 -39 -92 -43 -132 -10c-19 18 -32 39 -32 62c0 13 -32 6 -73 -56v-199c0 -55 5 -95 41 -105v-8h-250v8c38 11 39 54 39 105v244c0 35 -12 49 -53 64v8l223 42v-140c71 107 101 119 131 133c28 13 70 7 96 -16z" />
    <glyph glyph-name="s" unicode="s" horiz-adv-x="445" 
d="M313 279c91 -55 114 -168 59 -234c0 0 -38 -54 -154 -54c-121 0 -178 34 -178 34v131h9c20 -93 103 -156 169 -156c71 0 87 83 11 133l-101 61c-94 62 -119 161 -58 229c0 0 37 48 151 48c115 0 163 -28 163 -28v-102h-9c-18 90 -96 121 -154 121c-65 0 -96 -65 -9 -120z
" />
    <glyph glyph-name="t" unicode="t" horiz-adv-x="399" 
d="M320 64c29 0 49 16 61 30l6 -4c-12 -53 -70 -99 -144 -99c-79 0 -169 32 -169 153v309h-63v9h63v134l168 21v-155h129v-9h-129v-306c0 -56 20 -83 78 -83z" />
    <glyph glyph-name="u" unicode="u" 
d="M544 89c0 -48 9 -58 51 -63v-8l-192 -26c-27 -4 -28 19 -28 19v82c-8 -52 -57 -102 -140 -102c-79 0 -162 33 -162 153v222c0 60 2 69 -56 77v8l228 20v-324c0 -56 14 -83 65 -83c28 0 55 13 65 56v243c0 61 4 74 -47 80v8l216 20v-382z" />
    <glyph glyph-name="v" unicode="v" horiz-adv-x="599" 
d="M360 462h233v-8c-65 0 -91 -38 -144 -164l-113 -299h-55l-197 401c-28 52 -62 60 -81 62v8h313v-8c-67 0 -23 -84 -23 -84l102 -200l45 122c17 49 24 162 -80 162v8z" />
    <glyph glyph-name="w" unicode="w" horiz-adv-x="846" 
d="M627 462h215v-8c-60 0 -84 -38 -133 -164l-105 -299h-50l-131 289l-97 -289h-52l-183 401c-26 52 -57 60 -75 62v8h270v-8c-44 0 -1 -84 -1 -84l93 -198l40 117l-47 103c-26 52 -32 60 -50 62v8h250v-8c-48 0 -6 -84 -6 -84l93 -199s27 72 43 120s15 163 -74 163v8z" />
    <glyph glyph-name="x" unicode="x" horiz-adv-x="659" 
d="M573 59c34 -46 63 -49 80 -51v-8h-306v8c46 0 -14 78 -15 79l-64 88l-35 -48s-85 -119 64 -119v-8h-269v8c66 0 141 47 196 124l38 50l-164 228c-39 42 -70 42 -87 44v8h342v-8c-28 0 -49 -32 -13 -79l54 -67l31 46s67 100 -43 100v8h249v-8c-77 0 -156 -38 -195 -99
l-36 -55z" />
    <glyph glyph-name="y" unicode="y" horiz-adv-x="616" 
d="M368 462h233v-8c-72 0 -95 -38 -148 -164l-125 -359c-31 -100 -60 -139 -83 -158c-22 -18 -67 -23 -96 -10c-43 20 -61 70 -43 113c20 43 70 62 113 43c22 -10 37 -26 44 -47c4 -15 29 -34 57 66v0l-228 454c-28 52 -61 60 -81 62v8h313v-8c-67 0 -23 -84 -23 -84
l102 -198l41 121s49 161 -76 161v8z" />
    <glyph glyph-name="z" unicode="z" horiz-adv-x="529" 
d="M493 462l-242 -453c150 0 200 103 214 143h8l-9 -152h-435l258 453c-134 0 -198 -57 -221 -123h-8l5 132h430z" />
    <glyph glyph-name="braceleft" unicode="{" horiz-adv-x="383" 
d="M268 3c0 -104 15 -163 60 -163l-1 -4c-131 0 -199 52 -199 167v117c0 148 -38 143 -79 158v4c41 15 79 11 79 169v117c0 115 61 167 199 167l1 -4c-50 0 -60 -59 -60 -163v-144c0 -110 -55 -144 -182 -144c127 0 182 -24 182 -133v-144z" />
    <glyph glyph-name="bar" unicode="|" horiz-adv-x="250" 
d="M73 -164v899h111v-899h-111z" />
    <glyph glyph-name="braceright" unicode="}" horiz-adv-x="376" 
d="M52 -161c46 0 60 59 60 163v144c0 109 56 133 182 133c-126 0 -182 34 -182 144v144c0 104 -9 163 -60 163l1 4c139 0 199 -52 199 -167v-117c0 -158 38 -154 79 -169v-4c-41 -15 -79 -10 -79 -158v-117c0 -115 -68 -167 -199 -167z" />
    <glyph glyph-name="asciitilde" unicode="~" horiz-adv-x="648" 
d="M367 165l-119 47c-33 13 -154 47 -181 -7l-4 1c83 193 216 137 216 137l119 -46c34 -15 154 -47 182 7l4 -1c-85 -184 -217 -138 -217 -138z" />
    <glyph glyph-name="uni007F" horiz-adv-x="0" 
 />
    <glyph glyph-name="uni00A0" unicode="&#xa0;" horiz-adv-x="280" 
 />
    <glyph glyph-name="exclamdown" unicode="&#xa1;" horiz-adv-x="358" 
d="M127 302h115l37 -477h-192zM88 472c0 54 44 97 97 97c52 0 95 -43 95 -97c0 -53 -43 -96 -95 -96c-53 0 -97 43 -97 96z" />
    <glyph glyph-name="cent" unicode="&#xa2;" horiz-adv-x="582" 
d="M338 94v368c-47 -13 -68 -94 -68 -216c0 -78 23 -129 68 -152zM376 384c8 20 21 33 38 40c11 4 3 38 -67 38v-372c51 -24 136 -9 154 43l7 -3c0 -57 -57 -128 -161 -139v-109h-9v109c-147 0 -264 83 -264 242c0 135 81 235 264 238v122h9v-122c78 0 129 -34 153 -61
c17 -18 23 -49 15 -76c-13 -39 -57 -59 -95 -44c-39 13 -59 56 -44 94z" />
    <glyph glyph-name="sterling" unicode="&#xa3;" horiz-adv-x="705" 
d="M276 64c-35 23 -65 42 -94 55c-75 31 -119 -13 -116 -53c5 -65 85 -66 98 -66c52 0 95 35 112 64zM566 -2c-60 -18 -172 -1 -234 33c-39 -21 -94 -40 -167 -40c-10 0 -100 4 -126 73c-22 59 18 185 217 121l31 -11c-2 11 -27 58 -53 104c-19 33 -39 67 -51 85h-90v9h85
c-149 334 156 411 282 356c63 -27 88 -59 103 -94c10 -29 2 -67 -22 -92c-34 -35 -91 -35 -126 -1c-36 35 -36 91 -2 126c18 18 39 27 61 27s0 21 -19 26c-153 38 -224 -62 -58 -348h131v-9h-125c8 -11 15 -23 20 -34c45 -85 38 -161 17 -203l26 -9c75 -24 172 -36 172 40
h11c22 -134 -83 -159 -83 -159z" />
    <glyph glyph-name="currency" unicode="&#xa4;" horiz-adv-x="612" 
d="M545 345c0 -52 -16 -99 -44 -139l89 -88l-58 -59l-89 89c-39 -28 -88 -44 -139 -44c-52 0 -100 16 -140 44l-88 -89l-58 59l88 88c-27 40 -44 87 -44 139s17 101 44 140l-88 88l58 58l88 -88c40 28 88 44 140 44c51 0 100 -16 139 -44l89 88l58 -58l-89 -88
c28 -39 44 -88 44 -140zM304 232c62 0 113 51 113 113c0 63 -51 114 -113 114c-63 0 -114 -51 -114 -114c0 -62 51 -113 114 -113z" />
    <glyph glyph-name="yen" unicode="&#xa5;" horiz-adv-x="712" 
d="M440 704h290v-8c-62 0 -135 -63 -206 -205l-81 -163h157v-9h-157v-90h157v-9h-157v-107c0 -68 -7 -104 35 -104v-9h-269v9c42 0 37 36 37 104v107h-142v9h142v47l-24 43h-118v9h113l-166 290c-44 76 -51 76 -77 79v7h301v-7c-40 0 -50 1 17 -114l145 -248s51 99 79 160
c23 48 47 201 -76 201v8z" />
    <glyph glyph-name="brokenbar" unicode="&#xa6;" horiz-adv-x="251" 
d="M182 735v-375h-111v375h111zM182 186v-377h-111v377h111z" />
    <glyph glyph-name="section" unicode="&#xa7;" horiz-adv-x="587" 
d="M416 85c64 -45 99 -95 91 -181c-17 -169 -182 -165 -251 -158c-55 5 -100 38 -114 56c-17 20 -21 53 -10 79c19 38 63 55 102 37c38 -18 55 -63 37 -101c-9 -19 -24 -33 -41 -39c-7 -2 -1 -19 27 -23c76 -6 124 34 130 96c5 46 -19 84 -83 124l-124 73
c-137 86 -178 242 1 329c-67 40 -100 95 -91 181c16 169 181 167 251 160c55 -5 99 -40 113 -58c17 -20 22 -53 10 -79c-19 -38 -63 -55 -102 -37c-38 18 -55 63 -37 101c10 19 24 33 42 39c7 2 0 22 -28 26c-76 6 -123 -37 -129 -99c-5 -46 19 -84 83 -124l124 -73
c136 -86 177 -242 -1 -329zM261 187c45 -30 139 -88 148 -96c100 86 -17 146 -73 184c-45 30 -139 88 -148 96c-101 -86 16 -146 73 -184z" />
    <glyph glyph-name="dieresis" unicode="&#xa8;" horiz-adv-x="374" 
d="M163 655c0 -39 -32 -71 -69 -71c-39 0 -71 32 -71 71c0 38 32 69 71 69c37 0 69 -31 69 -69zM351 655c0 -39 -32 -71 -69 -71c-39 0 -71 32 -71 71c0 38 32 69 71 69c37 0 69 -31 69 -69z" />
    <glyph glyph-name="copyright" unicode="&#xa9;" horiz-adv-x="815" 
d="M407 746c208 0 377 -169 377 -377s-169 -377 -377 -377c-209 0 -377 169 -377 377s168 377 377 377zM407 70c164 0 299 134 299 299s-135 300 -299 300c-165 0 -300 -135 -300 -300s135 -299 300 -299zM550 301h9l3 -114c-15 -11 -72 -26 -133 -26
c-121 0 -229 76 -229 204s108 205 229 205c74 0 120 -15 133 -26l-3 -115h-9c-17 118 -79 132 -121 132c-63 0 -89 -40 -89 -196s28 -195 89 -195c39 0 102 18 121 131z" />
    <glyph glyph-name="ordfeminine" unicode="&#xaa;" horiz-adv-x="328" 
d="M155 510v72c-43 -9 -43 -38 -43 -63c0 0 0 -32 21 -32c9 0 17 11 22 23zM280 495l8 -3c-7 -24 -36 -39 -69 -39c0 0 -56 0 -62 41c-8 -25 -35 -41 -72 -41c-21 0 -66 9 -66 54c0 52 43 62 136 84v34c0 54 -29 82 -66 63c0 0 -12 -7 5 -12c9 -2 15 -9 19 -19
c8 -20 -1 -41 -20 -49c-20 -7 -41 2 -49 21c-5 13 -2 28 6 39c6 8 15 17 32 26c20 11 53 11 53 11c69 0 107 -43 107 -105v-78s0 -38 26 -37c0 0 9 1 12 10z" />
    <glyph glyph-name="guillemotleft" unicode="&#xab;" horiz-adv-x="721" 
d="M373 505v-49l-118 -190l118 -184v-49l-286 233zM632 505v-49l-117 -190l117 -184v-49l-286 233z" />
    <glyph glyph-name="logicalnot" unicode="&#xac;" horiz-adv-x="692" 
d="M41 418h606v-370h-123v248h-483v122z" />
    <glyph glyph-name="uni00AD" unicode="&#xad;" horiz-adv-x="444" 
d="M379 185h-315v138h315v-138z" />
    <glyph glyph-name="registered" unicode="&#xae;" horiz-adv-x="819" 
d="M408 746c208 0 377 -169 377 -377s-169 -377 -377 -377s-377 169 -377 377s169 377 377 377zM408 70c165 0 299 134 299 299s-134 300 -299 300s-299 -135 -299 -300s134 -299 299 -299zM376 362c69 0 76 -2 76 90c0 97 -14 97 -76 97h-17v-187h17zM571 250
c11 -41 39 -58 53 -59v-9h-106c-38 0 -50 24 -63 123c-6 48 -71 48 -71 48h-25v-106c0 -52 2 -56 25 -56v-9h-160v9c23 0 28 2 28 56v259c0 33 -5 48 -28 48v4h152c106 0 202 -13 202 -102c0 -80 -74 -97 -125 -97c61 0 92 -13 118 -109z" />
    <glyph glyph-name="macron" unicode="&#xaf;" horiz-adv-x="360" 
d="M-16 671h393v-100h-393v100z" />
    <glyph glyph-name="degree" unicode="&#xb0;" horiz-adv-x="381" 
d="M187 737c72 0 130 -57 130 -130c0 -72 -58 -128 -130 -128s-130 56 -130 128c0 73 58 130 130 130zM250 606c0 34 -28 62 -62 62s-62 -28 -62 -62s28 -61 62 -61s62 27 62 61z" />
    <glyph glyph-name="plusminus" unicode="&#xb1;" horiz-adv-x="608" 
d="M350 403h210v-101h-210v-157h-100v157h-209v101h209v132h100v-132zM41 0v100h519v-100h-519z" />
    <glyph glyph-name="twosuperior" unicode="&#xb2;" horiz-adv-x="280" 
d="M227 476h9l-27 -97h-181l91 122c110 161 -87 167 -70 82l-8 -4c-29 55 11 125 90 125c46 0 87 -40 87 -81c0 -70 -90 -127 -115 -158l-11 -15h94c16 0 31 8 41 26z" />
    <glyph glyph-name="threesuperior" unicode="&#xb3;" horiz-adv-x="289" 
d="M249 477c0 -89 -76 -101 -134 -101c-40 0 -64 13 -79 39c-6 11 -6 28 3 40c12 18 37 22 55 10c17 -13 22 -37 9 -54c-6 -10 -15 -15 -25 -17c-6 0 0 -14 37 -14c34 0 50 37 41 88c-5 29 -15 72 -71 72v4c60 10 62 74 33 94c-20 14 -61 9 -65 -17l-4 -1
c-11 35 16 84 83 84c87 0 121 -109 35 -151c50 -2 82 -40 82 -76z" />
    <glyph glyph-name="acute" unicode="&#xb4;" horiz-adv-x="508" 
d="M87 558l224 163l162 -50l-304 -113h-82z" />
    <glyph glyph-name="mu" unicode="&#xb5;" horiz-adv-x="618" 
d="M546 89c0 -49 10 -59 52 -63v-9l-193 -25c-27 -5 -28 19 -28 19v89c-16 -85 -100 -109 -131 -109v-157c0 -49 10 -60 52 -64v-8l-202 -26c-29 -5 -29 19 -29 19v608c0 61 4 74 -47 80v8l226 20v-323c0 -57 15 -83 74 -83c28 0 50 26 57 65v233c0 61 4 74 -47 80v8l216 20
v-382z" />
    <glyph glyph-name="paragraph" unicode="&#xb6;" horiz-adv-x="796" 
d="M716 694c-50 0 -82 -72 -82 -142v-660c0 -78 27 -148 75 -148v-9h-195v969h202v-10zM303 704h120v-969h-255v9c48 0 134 18 134 148v362c-136 0 -265 30 -265 223c0 191 145 226 265 227h1z" />
    <glyph glyph-name="periodcentered" unicode="&#xb7;" horiz-adv-x="290" 
d="M212 299c0 -36 -30 -66 -66 -66s-66 30 -66 66s30 66 66 66s66 -30 66 -66z" />
    <glyph glyph-name="cedilla" unicode="&#xb8;" horiz-adv-x="278" 
d="M128 -4h9l-22 -59c94 21 141 -29 135 -86c-8 -67 -68 -78 -113 -78c-43 0 -60 14 -69 22c-9 7 -15 22 -13 36c5 19 24 31 44 26c20 -4 32 -23 28 -42c-4 -12 -9 -19 -18 -22c-6 -3 1 -11 23 -11c27 0 39 24 39 45c0 16 -11 74 -86 60z" />
    <glyph glyph-name="onesuperior" unicode="&#xb9;" horiz-adv-x="232" 
d="M162 425c0 -23 1 -36 17 -36v-9h-119v9c19 0 21 14 21 36v193c0 35 -40 4 -40 4l-7 8l86 74h42v-279z" />
    <glyph glyph-name="ordmasculine" unicode="&#xba;" horiz-adv-x="372" 
d="M183 707c105 0 150 -88 150 -171c0 -82 -45 -163 -150 -163c-103 0 -149 81 -149 163c0 83 46 171 149 171zM183 382c32 0 32 41 32 154c0 114 0 162 -32 162c-31 0 -32 -48 -32 -162c0 -113 1 -154 32 -154z" />
    <glyph glyph-name="guillemotright" unicode="&#xbb;" horiz-adv-x="719" 
d="M342 456v49l286 -239l-286 -233v49l118 184zM83 456v49l286 -239l-286 -233v49l117 184z" />
    <glyph glyph-name="onequarter" unicode="&#xbc;" horiz-adv-x="680" 
d="M576 713h100l-559 -676h-99zM192 426c0 -26 1 -41 19 -41v-10h-136v10c22 0 24 16 24 41v220c0 40 -45 5 -45 5l-8 9l98 84h48v-318zM582 101h-43v-26c0 -65 1 -66 23 -66v-9h-139v9c21 0 23 2 23 63v29h-120v9l189 258l24 -5v-226h43v-36zM446 137v123l-68 -94
c-21 -28 -14 -29 -3 -29h71z" />
    <glyph glyph-name="onehalf" unicode="&#xbd;" horiz-adv-x="672" 
d="M621 116h4l-32 -116h-199l103 139c115 170 -93 176 -88 93l-8 -5c-34 63 22 148 103 143c52 0 99 -39 99 -86c0 -80 -89 -151 -118 -186l-9 -12h93c18 0 40 9 52 30zM576 713h100l-559 -676h-99zM192 426c0 -26 1 -41 19 -41v-10h-136v10c22 0 24 16 24 41v220
c0 40 -45 5 -45 5l-8 9l98 84h48v-318z" />
    <glyph glyph-name="threequarters" unicode="&#xbe;" horiz-adv-x="656" 
d="M576 713h100l-559 -676h-99zM582 101h-43v-26c0 -65 1 -66 23 -66v-9h-139v9c21 0 23 2 23 63v29h-120v9l189 258l24 -5v-226h43v-36zM446 137v123l-68 -94c-21 -28 -14 -29 -3 -29h71zM271 488c0 -101 -86 -115 -153 -115c-45 0 -72 15 -90 44c-6 13 -6 32 4 46
c14 21 42 25 63 11c19 -14 25 -42 10 -61c-9 -11 -17 -14 -24 -16s-5 -15 37 -15c39 0 57 38 47 96c-5 33 -17 80 -81 80v9c69 12 71 82 38 105c-23 16 -66 11 -70 -19l-9 -2c-12 40 18 96 95 96c99 0 138 -124 40 -172c57 -3 93 -46 93 -87z" />
    <glyph glyph-name="questiondown" unicode="&#xbf;" horiz-adv-x="638" 
d="M101 -95c-6 146 101 210 159 225c54 14 105 44 100 104l9 1c4 -27 36 -81 -21 -141c-44 -47 -54 -109 -46 -189c7 -89 78 -166 159 -134c35 14 39 54 23 52c-20 -3 -40 5 -57 19c-35 31 -38 82 -10 117c29 34 82 36 117 6c24 -20 30 -51 29 -79c1 -38 -35 -93 -97 -121
c-161 -72 -358 -9 -365 140zM268 384c0 49 40 87 88 87s88 -38 88 -87s-40 -88 -88 -88s-88 39 -88 88z" />
    <glyph glyph-name="Agrave" unicode="&#xc0;" horiz-adv-x="762" 
d="M341 898l224 -163h-82l-304 113zM382 203l-100 225l-89 -225h189zM181 194l202 510h5l270 -613c36 -80 70 -81 90 -83v-8h-350v8c80 0 20 117 20 117l-32 69h-196c-20 -46 -2 -186 118 -186v-8h-288v8c30 2 84 10 161 186z" />
    <glyph glyph-name="Aacute" unicode="&#xc1;" horiz-adv-x="762" 
d="M209 735l224 163l162 -50l-304 -113h-82zM382 203l-100 225l-89 -225h189zM181 194l202 510h5l270 -613c36 -80 70 -81 90 -83v-8h-350v8c80 0 20 117 20 117l-32 69h-196c-20 -46 -2 -186 118 -186v-8h-288v8c30 2 84 10 161 186z" />
    <glyph glyph-name="Acircumflex" unicode="&#xc2;" horiz-adv-x="762" 
d="M262 735h-41l165 193l165 -193h-41l-124 82zM382 203l-100 225l-89 -225h189zM181 194l202 510h5l270 -613c36 -80 70 -81 90 -83v-8h-350v8c80 0 20 117 20 117l-32 69h-196c-20 -46 -2 -186 118 -186v-8h-288v8c30 2 84 10 161 186z" />
    <glyph glyph-name="Atilde" unicode="&#xc3;" horiz-adv-x="762" 
d="M436 773l-119 47c-33 13 -154 37 -181 -17l-4 1c83 193 216 127 216 127l119 -46c34 -15 154 -37 182 17l4 -1c-85 -184 -217 -128 -217 -128zM382 203l-100 225l-89 -225h189zM181 194l202 510h5l270 -613c36 -80 70 -81 90 -83v-8h-350v8c80 0 20 117 20 117l-32 69
h-196c-20 -46 -2 -186 118 -186v-8h-288v8c30 2 84 10 161 186z" />
    <glyph glyph-name="Adieresis" unicode="&#xc4;" horiz-adv-x="762" 
d="M358 833c0 -39 -32 -71 -69 -71c-39 0 -71 32 -71 71c0 38 32 69 71 69c37 0 69 -31 69 -69zM546 833c0 -39 -32 -71 -69 -71c-39 0 -71 32 -71 71c0 38 32 69 71 69c37 0 69 -31 69 -69zM382 203l-100 225l-89 -225h189zM181 194l202 510h5l270 -613
c36 -80 70 -81 90 -83v-8h-350v8c80 0 20 117 20 117l-32 69h-196c-20 -46 -2 -186 118 -186v-8h-288v8c30 2 84 10 161 186z" />
    <glyph glyph-name="Aring" unicode="&#xc5;" horiz-adv-x="762" 
d="M386 919c-22 0 -39 -17 -39 -39s17 -40 39 -40s39 18 39 40s-17 39 -39 39zM386 980c57 0 103 -43 103 -100c0 -56 -46 -102 -103 -102c-56 0 -103 46 -103 102c0 57 47 100 103 100zM382 203l-100 225l-89 -225h189zM181 194l202 510h5l270 -613c36 -80 70 -81 90 -83
v-8h-350v8c80 0 20 117 20 117l-32 69h-196c-20 -46 -2 -186 118 -186v-8h-288v8c30 2 84 10 161 186z" />
    <glyph glyph-name="AE" unicode="&#xc6;" horiz-adv-x="1056" 
d="M225 203h253v363c0 22 -1 42 -5 61zM975 196h9v-196h-564v9c42 0 58 60 58 128v57h-258c-29 -46 -39 -186 81 -186v-8h-289v8c31 2 86 10 196 185l262 448c-8 32 -24 55 -50 55v8h551v-205h-9c0 196 -273 196 -273 196h-16v-334h61c2 0 107 -3 118 117h9v-245h-9
c-11 121 -116 119 -118 119h-61v-343h16s286 -10 286 187z" />
    <glyph glyph-name="Ccedilla" unicode="&#xc7;" horiz-adv-x="733" 
d="M668 240l10 -202c-27 -18 -121 -47 -255 -47l-18 -49c94 21 141 -29 135 -86c-8 -67 -68 -78 -113 -78c-43 0 -60 14 -69 22c-9 7 -15 22 -13 36c5 19 24 31 44 26c20 -4 32 -23 28 -42c-4 -12 -9 -19 -18 -22c-6 -3 1 -11 23 -11c27 0 39 24 39 45c0 16 -11 74 -86 60
l39 99c-201 12 -374 145 -374 361c0 226 190 361 404 361c129 0 210 -27 234 -46l-10 -202h-8c-30 207 -143 239 -216 239c-111 0 -158 -78 -158 -352c0 -275 50 -352 158 -352c68 0 182 41 216 240h8z" />
    <glyph glyph-name="Egrave" unicode="&#xc8;" horiz-adv-x="683" 
d="M277 898l224 -163h-82l-304 113zM602 196h9v-196h-584v9c42 0 58 60 58 128v429c0 62 -14 130 -58 130v8h571v-205h-9c0 195 -273 196 -273 196h-36v-335h81c1 0 107 -3 118 118h9v-245h-9c-11 120 -117 118 -118 118h-81v-342h36s286 -11 286 187z" />
    <glyph glyph-name="Eacute" unicode="&#xc9;" horiz-adv-x="683" 
d="M127 735l224 163l162 -50l-304 -113h-82zM602 196h9v-196h-584v9c42 0 58 60 58 128v429c0 62 -14 130 -58 130v8h571v-205h-9c0 195 -273 196 -273 196h-36v-335h81c1 0 107 -3 118 118h9v-245h-9c-11 120 -117 118 -118 118h-81v-342h36s286 -11 286 187z" />
    <glyph glyph-name="Ecircumflex" unicode="&#xca;" horiz-adv-x="683" 
d="M189 735h-41l165 193l165 -193h-41l-124 82zM602 196h9v-196h-584v9c42 0 58 60 58 128v429c0 62 -14 130 -58 130v8h571v-205h-9c0 195 -273 196 -273 196h-36v-335h81c1 0 107 -3 118 118h9v-245h-9c-11 120 -117 118 -118 118h-81v-342h36s286 -11 286 187z" />
    <glyph glyph-name="Edieresis" unicode="&#xcb;" horiz-adv-x="683" 
d="M301 833c0 -39 -32 -71 -69 -71c-39 0 -71 32 -71 71c0 38 32 69 71 69c37 0 69 -31 69 -69zM489 833c0 -39 -32 -71 -69 -71c-39 0 -71 32 -71 71c0 38 32 69 71 69c37 0 69 -31 69 -69zM602 196h9v-196h-584v9c42 0 58 60 58 128v429c0 62 -14 130 -58 130v8h571v-205
h-9c0 195 -273 196 -273 196h-36v-335h81c1 0 107 -3 118 118h9v-245h-9c-11 120 -117 118 -118 118h-81v-342h36s286 -11 286 187z" />
    <glyph glyph-name="Igrave" unicode="&#xcc;" horiz-adv-x="405" 
d="M39 704h330v-8c-42 0 -65 -1 -65 -89v-494c0 -95 23 -104 65 -104v-9h-330v9c42 0 65 9 65 104v494c0 88 -22 89 -65 89v8zM159 898l224 -163h-82l-304 113z" />
    <glyph glyph-name="Iacute" unicode="&#xcd;" horiz-adv-x="405" 
d="M39 704h330v-8c-42 0 -65 -1 -65 -89v-494c0 -95 23 -104 65 -104v-9h-330v9c42 0 65 9 65 104v494c0 88 -22 89 -65 89v8zM29 735l224 163l162 -50l-304 -113h-82z" />
    <glyph glyph-name="Icircumflex" unicode="&#xce;" horiz-adv-x="405" 
d="M39 704h330v-8c-42 0 -65 -1 -65 -89v-494c0 -95 23 -104 65 -104v-9h-330v9c42 0 65 9 65 104v494c0 88 -22 89 -65 89v8zM80 735h-41l165 193l165 -193h-41l-124 82z" />
    <glyph glyph-name="Idieresis" unicode="&#xcf;" horiz-adv-x="405" 
d="M39 704h330v-8c-42 0 -65 -1 -65 -89v-494c0 -95 23 -104 65 -104v-9h-330v9c42 0 65 9 65 104v494c0 88 -22 89 -65 89v8zM179 833c0 -39 -32 -71 -69 -71c-39 0 -71 32 -71 71c0 38 32 69 71 69c37 0 69 -31 69 -69zM367 833c0 -39 -32 -71 -69 -71
c-39 0 -71 32 -71 71c0 38 32 69 71 69c37 0 69 -31 69 -69z" />
    <glyph glyph-name="Eth" unicode="&#xd0;" horiz-adv-x="823" 
d="M340 704c199 0 434 -62 434 -355c0 -292 -235 -349 -434 -349h-296v9c43 0 59 60 59 128v212h-82v9h82v208c0 62 -15 129 -59 129v9h296zM340 9c118 0 183 14 183 340c0 320 -60 346 -183 346h-44v-337h131v-9h-131v-340h44z" />
    <glyph glyph-name="Ntilde" unicode="&#xd1;" horiz-adv-x="840" 
d="M470 773l-119 47c-33 13 -154 37 -181 -17l-4 1c83 193 216 127 216 127l119 -46c34 -15 154 -37 182 17l4 -1c-85 -184 -217 -128 -217 -128zM676 0h-110l-377 537v-312c0 -80 5 -216 151 -216v-9h-318v9c138 0 158 137 158 216v324l-47 67c-60 79 -99 78 -125 80v8h319
l340 -491v267c0 93 -32 216 -143 216v8h303v-8c-124 0 -151 -123 -151 -216v-480z" />
    <glyph glyph-name="Ograve" unicode="&#xd2;" horiz-adv-x="812" 
d="M406 0c118 0 122 72 122 347c0 274 -4 357 -122 357c-119 0 -124 -83 -124 -357c0 -275 5 -347 124 -347zM406 713c220 0 365 -168 365 -366c0 -199 -145 -356 -365 -356s-365 157 -365 356c0 198 145 366 365 366zM367 898l224 -163h-82l-304 113z" />
    <glyph glyph-name="Oacute" unicode="&#xd3;" horiz-adv-x="812" 
d="M406 0c118 0 122 72 122 347c0 274 -4 357 -122 357c-119 0 -124 -83 -124 -357c0 -275 5 -347 124 -347zM406 713c220 0 365 -168 365 -366c0 -199 -145 -355 -365 -355s-365 156 -365 355c0 198 145 366 365 366zM207 735l224 163l162 -50l-304 -113h-82z" />
    <glyph glyph-name="Ocircumflex" unicode="&#xd4;" horiz-adv-x="812" 
d="M406 0c118 0 122 72 122 347c0 274 -4 357 -122 357c-119 0 -124 -83 -124 -357c0 -275 5 -347 124 -347zM406 713c220 0 365 -168 365 -366c0 -199 -145 -355 -365 -355s-365 156 -365 355c0 198 145 366 365 366zM282 735h-41l165 193l165 -193h-41l-124 82z" />
    <glyph glyph-name="Otilde" unicode="&#xd5;" horiz-adv-x="812" 
d="M406 0c118 0 122 72 122 347c0 274 -4 357 -122 357c-119 0 -124 -83 -124 -357c0 -275 5 -347 124 -347zM406 713c220 0 365 -168 365 -366c0 -199 -145 -356 -365 -356s-365 157 -365 356c0 198 145 366 365 366zM456 773l-119 47c-33 13 -154 37 -181 -17l-4 1
c83 193 216 127 216 127l119 -46c34 -15 154 -37 182 17l4 -1c-85 -184 -217 -128 -217 -128z" />
    <glyph glyph-name="Odieresis" unicode="&#xd6;" horiz-adv-x="812" 
d="M406 0c118 0 122 72 122 347c0 274 -4 357 -122 357c-119 0 -124 -83 -124 -357c0 -275 5 -347 124 -347zM406 713c220 0 365 -168 365 -366c0 -199 -145 -355 -365 -355s-365 156 -365 355c0 198 145 366 365 366zM382 833c0 -39 -32 -71 -69 -71c-39 0 -71 32 -71 71
c0 38 32 69 71 69c37 0 69 -31 69 -69zM570 833c0 -39 -32 -71 -69 -71c-39 0 -71 32 -71 71c0 38 32 69 71 69c37 0 69 -31 69 -69z" />
    <glyph glyph-name="multiply" unicode="&#xd7;" horiz-adv-x="672" 
d="M615 432l-178 -178l178 -177l-99 -101l-179 178l-178 -178l-100 100l178 178l-178 178l100 101l178 -178l179 178z" />
    <glyph glyph-name="Oslash" unicode="&#xd8;" horiz-adv-x="813" 
d="M588 669c114 -63 184 -186 184 -322c0 -199 -145 -356 -365 -356c-65 0 -124 14 -174 38l-35 -64h-11l38 68c-114 59 -183 177 -183 314c0 198 145 366 365 366c64 0 123 -14 173 -40l40 72h10zM283 347c0 -84 0 -152 4 -201l235 426c-10 97 -39 132 -115 132
c-119 0 -124 -83 -124 -357zM407 0c118 0 122 72 122 347c0 85 -1 155 -5 207l-235 -425c11 -98 40 -129 118 -129z" />
    <glyph glyph-name="Ugrave" unicode="&#xd9;" horiz-adv-x="736" 
d="M530 67c-48 -49 -133 -76 -210 -76c-136 0 -268 72 -268 235v381c0 61 4 88 -40 88v9h286v-9c-43 0 -41 -16 -41 -88v-388c0 -118 62 -168 157 -168c41 0 78 14 108 36c48 35 53 132 53 132v260c0 82 -26 216 -121 216v9h262l1 -9v0c-112 0 -133 -134 -133 -216v-260
c0 -31 -4 -99 -54 -152zM332 898l224 -163h-82l-304 113z" />
    <glyph glyph-name="Uacute" unicode="&#xda;" horiz-adv-x="736" 
d="M530 67c-48 -49 -133 -76 -210 -76c-136 0 -268 72 -268 235v381c0 61 4 88 -40 88v9h286v-9c-43 0 -41 -16 -41 -88v-388c0 -118 62 -168 157 -168c41 0 78 14 108 36c48 35 53 132 53 132v260c0 82 -26 216 -121 216v9h262l1 -9v0c-112 0 -133 -134 -133 -216v-260
c0 -31 -4 -99 -54 -152zM214 735l224 163l162 -50l-304 -113h-82z" />
    <glyph glyph-name="Ucircumflex" unicode="&#xdb;" horiz-adv-x="736" 
d="M530 67c-48 -49 -133 -76 -210 -76c-136 0 -268 72 -268 235v381c0 61 4 88 -40 88v9h286v-9c-43 0 -41 -16 -41 -88v-388c0 -118 62 -168 157 -168c41 0 78 14 108 36c48 35 53 132 53 132v260c0 82 -26 216 -121 216v9h262l1 -9v0c-112 0 -133 -134 -133 -216v-260
c0 -31 -4 -99 -54 -152zM234 735h-41l165 193l165 -193h-41l-124 82z" />
    <glyph glyph-name="Udieresis" unicode="&#xdc;" horiz-adv-x="736" 
d="M335 833c0 -39 -32 -71 -69 -71c-39 0 -71 32 -71 71c0 38 32 69 71 69c37 0 69 -31 69 -69zM523 833c0 -39 -32 -71 -69 -71c-39 0 -71 32 -71 71c0 38 32 69 71 69c37 0 69 -31 69 -69zM530 67c-48 -49 -133 -76 -210 -76c-136 0 -268 72 -268 235v381
c0 61 4 88 -40 88v9h286v-9c-43 0 -41 -16 -41 -88v-388c0 -118 62 -168 157 -168c41 0 78 14 108 36c48 35 53 132 53 132v260c0 82 -26 216 -121 216v9h262l1 -9v0c-112 0 -133 -134 -133 -216v-260c0 -31 -4 -99 -54 -152z" />
    <glyph glyph-name="Yacute" unicode="&#xdd;" horiz-adv-x="777" 
d="M473 335c0 0 50 99 78 160c23 48 47 201 -76 201v8h290v-8c-62 0 -135 -63 -206 -205l-81 -164v-214c0 -68 -7 -104 35 -104v-9h-269v9c42 0 37 36 37 104v163l-195 342c-44 76 -51 76 -77 79v7h301v-7c-40 0 -51 1 17 -114zM230 735l224 163l162 -50l-304 -113h-82z" />
    <glyph glyph-name="Thorn" unicode="&#xde;" horiz-adv-x="730" 
d="M293 574v-383v0c146 0 162 -2 162 190c0 202 -27 193 -162 193zM293 182v-69c0 -94 23 -104 65 -104v-9h-331v9c43 0 65 10 65 104v494c0 89 -21 88 -65 88v9h331v-9c-43 0 -65 1 -65 -88v-24v0c199 0 394 -13 394 -202c0 -186 -195 -199 -394 -199z" />
    <glyph glyph-name="germandbls" unicode="&#xdf;" horiz-adv-x="761" 
d="M440 420c91 0 295 -21 295 -222c0 -171 -108 -207 -290 -207c-47 0 -75 14 -89 33c-17 18 -25 49 -19 74c11 36 48 57 85 45c35 -10 56 -48 45 -83c-5 -18 -16 -33 -30 -40c-10 -4 -29 -20 8 -20c52 0 74 48 74 185c0 202 -104 226 -170 226v9c53 0 83 29 83 162
c0 156 -44 156 -64 156c-81 0 -77 -166 -77 -166v-572h-263v8c30 0 57 31 57 105v375c0 203 137 259 283 259c115 0 264 -17 264 -171c0 -153 -172 -156 -192 -156z" />
    <glyph glyph-name="agrave" unicode="&#xe0;" horiz-adv-x="567" 
d="M300 90v154c-82 -18 -81 -79 -81 -126c0 0 -1 -66 39 -66c17 0 31 14 42 38zM544 69l6 -5c-14 -44 -66 -73 -129 -73c0 0 -111 0 -120 90c-13 -52 -64 -90 -135 -90c-38 0 -125 17 -125 102c0 100 81 119 259 161v64c0 104 -59 160 -128 124c0 0 -22 -13 12 -25
c17 -6 28 -20 36 -38c15 -37 -2 -77 -39 -93c-36 -14 -77 3 -92 39c-10 26 -5 56 12 74c12 13 30 31 67 51c45 24 94 21 94 21c131 0 204 -82 204 -200v-149s0 -72 48 -70c0 0 25 0 30 17zM256 704l224 -163h-82l-304 113z" />
    <glyph glyph-name="aacute" unicode="&#xe1;" horiz-adv-x="567" 
d="M300 90v154c-82 -18 -81 -79 -81 -126c0 0 -1 -66 39 -66c17 0 31 14 42 38zM544 69l6 -5c-14 -44 -66 -73 -129 -73c0 0 -111 0 -120 90c-13 -52 -64 -90 -135 -90c-38 0 -125 17 -125 102c0 100 81 119 259 161v64c0 104 -59 160 -128 124c0 0 -22 -13 12 -25
c17 -6 28 -20 36 -38c15 -37 -2 -77 -39 -93c-36 -14 -77 3 -92 39c-10 26 -5 56 12 74c12 13 30 31 67 51c45 24 94 21 94 21c131 0 204 -82 204 -200v-149s0 -72 48 -70c0 0 25 0 30 17zM135 541l224 163l162 -50l-304 -113h-82z" />
    <glyph glyph-name="acircumflex" unicode="&#xe2;" horiz-adv-x="567" 
d="M300 90v154c-82 -18 -81 -79 -81 -126c0 0 -1 -66 39 -66c17 0 31 14 42 38zM544 69l6 -5c-14 -44 -66 -73 -129 -73c0 0 -111 0 -120 90c-13 -52 -64 -90 -135 -90c-38 0 -125 17 -125 102c0 100 81 119 259 161v64c0 104 -59 160 -128 124c0 0 -22 -13 12 -25
c17 -6 28 -20 36 -38c15 -37 -2 -77 -39 -93c-36 -14 -77 3 -92 39c-10 26 -5 56 12 74c12 13 30 31 67 51c45 24 94 21 94 21c131 0 204 -82 204 -200v-149s0 -72 48 -70c0 0 25 0 30 17zM175 512h-41l165 193l165 -193h-41l-124 82z" />
    <glyph glyph-name="atilde" unicode="&#xe3;" horiz-adv-x="567" 
d="M338 522l-119 47c-33 13 -154 37 -181 -17l-4 1c83 193 216 127 216 127l119 -46c34 -15 154 -37 182 17l4 -1c-85 -184 -217 -128 -217 -128zM300 90v154c-82 -18 -81 -79 -81 -126c0 0 -1 -66 39 -66c17 0 31 14 42 38zM544 69l6 -5c-14 -44 -66 -73 -129 -73
c0 0 -111 0 -120 90c-13 -52 -64 -90 -135 -90c-38 0 -125 17 -125 102c0 100 81 119 259 161v64c0 104 -59 160 -128 124c0 0 -22 -13 12 -25c17 -6 28 -20 36 -38c15 -37 -2 -77 -39 -93c-36 -14 -77 3 -92 39c-10 26 -5 56 12 74c12 13 30 31 67 51c45 24 94 21 94 21
c131 0 204 -82 204 -200v-149s0 -72 48 -70c0 0 25 0 30 17z" />
    <glyph glyph-name="adieresis" unicode="&#xe4;" horiz-adv-x="567" 
d="M267 609c0 -39 -32 -71 -69 -71c-39 0 -71 32 -71 71c0 38 32 69 71 69c37 0 69 -31 69 -69zM455 609c0 -39 -32 -71 -69 -71c-39 0 -71 32 -71 71c0 38 32 69 71 69c37 0 69 -31 69 -69zM300 90v154c-82 -18 -81 -79 -81 -126c0 0 -1 -66 39 -66c17 0 31 14 42 38z
M544 69l6 -5c-14 -44 -66 -73 -129 -73c0 0 -111 0 -120 90c-13 -52 -64 -90 -135 -90c-38 0 -125 17 -125 102c0 100 81 119 259 161v64c0 104 -59 160 -128 124c0 0 -22 -13 12 -25c17 -6 28 -20 36 -38c15 -37 -2 -77 -39 -93c-36 -14 -77 3 -92 39c-10 26 -5 56 12 74
c12 13 30 31 67 51c45 24 94 21 94 21c131 0 204 -82 204 -200v-149s0 -72 48 -70c0 0 25 0 30 17z" />
    <glyph glyph-name="aring" unicode="&#xe5;" horiz-adv-x="567" 
d="M296 677c-22 0 -39 -17 -39 -39s17 -40 39 -40s39 18 39 40s-17 39 -39 39zM296 741c57 0 103 -46 103 -103c0 -56 -46 -102 -103 -102c-56 0 -103 46 -103 102c0 57 47 103 103 103zM300 90v154c-82 -18 -81 -79 -81 -126c0 0 -1 -66 39 -66c17 0 31 14 42 38zM544 69
l6 -5c-14 -44 -66 -73 -129 -73c0 0 -111 0 -120 90c-13 -52 -64 -90 -135 -90c-38 0 -125 17 -125 102c0 100 81 119 259 161v64c0 104 -59 160 -128 124c0 0 -22 -13 12 -25c17 -6 28 -20 36 -38c15 -37 -2 -77 -39 -93c-36 -14 -77 3 -92 39c-10 26 -5 56 12 74
c12 13 30 31 67 51c45 24 94 21 94 21c131 0 204 -82 204 -200v-149s0 -72 48 -70c0 0 25 0 30 17z" />
    <glyph glyph-name="ae" unicode="&#xe6;" horiz-adv-x="728" 
d="M445 250h96c0 126 7 212 -38 212c-59 0 -58 -116 -58 -212zM299 91c-12 22 -20 47 -20 77v75c-81 -21 -81 -104 -81 -126c0 0 0 -66 39 -66c25 0 49 19 62 40zM667 141h9c-5 -75 -57 -150 -183 -150c-67 0 -145 26 -188 90c-21 -47 -79 -90 -160 -90c0 0 -109 0 -109 102
c0 100 68 122 243 160v64c0 104 -51 161 -120 125c0 0 -22 -13 10 -26c17 -7 28 -20 36 -38c15 -37 -2 -77 -39 -93c-36 -14 -77 3 -92 39c-10 26 -5 56 12 74c12 13 31 32 67 51c45 24 85 22 85 22c55 0 100 -19 134 -43c42 28 74 43 127 43c106 0 187 -42 187 -230h-241
c0 -152 31 -195 104 -206c56 -8 111 34 118 106z" />
    <glyph glyph-name="ccedilla" unicode="&#xe7;" horiz-adv-x="529" 
d="M318 471c78 0 129 -34 153 -61c17 -18 23 -49 15 -76c-13 -39 -57 -59 -95 -44c-39 13 -59 56 -44 94c8 20 21 33 38 40c11 4 -2 38 -62 38c-57 0 -82 -82 -82 -216c0 -108 46 -166 130 -166c50 0 87 19 101 53l7 -3c0 -62 -69 -139 -194 -139h-11l-18 -50
c94 21 141 -29 135 -86c-8 -67 -68 -78 -113 -78c-43 0 -60 14 -69 22c-9 7 -15 22 -13 36c5 19 24 31 44 26c20 -4 32 -23 28 -42c-4 -12 -9 -19 -18 -22c-6 -3 1 -11 23 -11c27 0 39 24 39 45c0 16 -11 74 -86 60l39 101c-122 9 -220 107 -220 241c0 137 84 238 273 238z
" />
    <glyph glyph-name="egrave" unicode="&#xe8;" horiz-adv-x="537" 
d="M289 471c106 0 207 -42 207 -230h-272c0 -152 48 -192 115 -207c50 -11 117 19 137 104l9 -2c-13 -74 -86 -145 -211 -145c-131 0 -237 104 -237 239c0 170 129 241 252 241zM224 250h127c0 126 -13 212 -58 212c-46 0 -69 -116 -69 -212zM237 704l224 -163h-82l-304 113
z" />
    <glyph glyph-name="eacute" unicode="&#xe9;" horiz-adv-x="537" 
d="M289 471c106 0 207 -42 207 -230h-272c0 -152 48 -192 115 -207c50 -11 117 19 137 104l9 -2c-13 -74 -86 -145 -211 -145c-131 0 -237 104 -237 239c0 170 129 241 252 241zM224 250h127c0 126 -13 212 -58 212c-46 0 -69 -116 -69 -212zM111 541l224 163l162 -50
l-304 -113h-82z" />
    <glyph glyph-name="ecircumflex" unicode="&#xea;" horiz-adv-x="537" 
d="M289 471c106 0 207 -42 207 -230h-272c0 -152 48 -192 115 -207c50 -11 117 19 137 104l9 -2c-13 -74 -86 -145 -211 -145c-131 0 -237 104 -237 239c0 170 129 241 252 241zM224 250h127c0 126 -13 212 -58 212c-46 0 -69 -116 -69 -212zM158 512h-41l165 193l165 -193
h-41l-124 82z" />
    <glyph glyph-name="edieresis" unicode="&#xeb;" horiz-adv-x="537" 
d="M253 609c0 -39 -32 -71 -69 -71c-39 0 -71 32 -71 71c0 38 32 69 71 69c37 0 69 -31 69 -69zM441 609c0 -39 -32 -71 -69 -71c-39 0 -71 32 -71 71c0 38 32 69 71 69c37 0 69 -31 69 -69zM289 471c106 0 207 -42 207 -230h-272c0 -152 48 -192 115 -207
c50 -11 117 19 137 104l9 -2c-13 -74 -86 -145 -211 -145c-131 0 -237 104 -237 239c0 170 129 241 252 241zM224 250h127c0 126 -13 212 -58 212c-46 0 -69 -116 -69 -212z" />
    <glyph glyph-name="igrave" unicode="&#xec;" horiz-adv-x="326" 
d="M248 113c0 -55 5 -95 41 -105v-8h-250v8c38 11 39 54 39 105v244c0 35 -11 49 -52 64v8l222 42v-358zM99 704l224 -163h-82l-304 113z" />
    <glyph glyph-name="iacute" unicode="&#xed;" horiz-adv-x="326" 
d="M248 113c0 -55 5 -95 41 -105v-8h-250v8c38 11 39 54 39 105v244c0 35 -11 49 -52 64v8l222 42v-358zM-11 541l224 163l162 -50l-304 -113h-82z" />
    <glyph glyph-name="icircumflex" unicode="&#xee;" horiz-adv-x="326" 
d="M248 113c0 -55 5 -95 41 -105v-8h-250v8c38 11 39 54 39 105v244c0 35 -11 49 -52 64v8l222 42v-358zM32 512h-41l165 193l165 -193h-41l-124 82z" />
    <glyph glyph-name="idieresis" unicode="&#xef;" horiz-adv-x="326" 
d="M248 113c0 -55 5 -95 41 -105v-8h-250v8c38 11 39 54 39 105v244c0 35 -11 49 -52 64v8l222 42v-358zM133 609c0 -39 -32 -71 -69 -71c-39 0 -71 32 -71 71c0 38 32 69 71 69c37 0 69 -31 69 -69zM321 609c0 -39 -32 -71 -69 -71c-39 0 -71 32 -71 71c0 38 32 69 71 69
c37 0 69 -31 69 -69z" />
    <glyph glyph-name="eth" unicode="&#xf0;" 
d="M373 333c0 35 -25 63 -71 63c-45 0 -82 -67 -82 -198c0 -155 -4 -198 71 -198s79 116 82 333zM576 318c0 -199 -103 -327 -285 -327c-152 0 -253 72 -253 227c0 110 46 220 228 220c46 0 101 -28 107 -68c-1 116 -18 192 -43 242l-176 -91l-4 8l176 91
c-41 75 -101 84 -145 84v9c79 0 158 -15 224 -53l89 46l5 -8l-85 -43c95 -58 162 -163 162 -337z" />
    <glyph glyph-name="ntilde" unicode="&#xf1;" horiz-adv-x="593" 
d="M341 522l-119 47c-33 13 -154 37 -181 -17l-4 1c83 193 216 127 216 127l119 -46c34 -15 154 -37 182 17l4 -1c-85 -184 -217 -128 -217 -128zM527 114c0 -55 6 -97 41 -106v-8h-250v8c38 11 40 55 40 106v201c0 57 -21 84 -69 84c-22 0 -45 -18 -59 -39v-247
c0 -55 5 -95 41 -105v-8h-250v8c38 11 39 53 39 105v244c0 35 -11 49 -52 64v8l222 42v-97c26 53 79 97 133 97c80 0 164 -32 164 -152v-205z" />
    <glyph glyph-name="ograve" unicode="&#xf2;" horiz-adv-x="595" 
d="M299 471c179 0 258 -108 258 -240c0 -131 -79 -240 -258 -240s-258 109 -258 240c0 132 79 240 258 240zM299 0c54 0 55 50 55 231s-1 231 -55 231c-55 0 -56 -50 -56 -231s1 -231 56 -231zM255 704l224 -163h-82l-304 113z" />
    <glyph glyph-name="oacute" unicode="&#xf3;" horiz-adv-x="595" 
d="M299 471c179 0 258 -108 258 -240c0 -131 -79 -240 -258 -240s-258 109 -258 240c0 132 79 240 258 240zM299 0c54 0 55 50 55 231s-1 231 -55 231c-55 0 -56 -50 -56 -231s1 -231 56 -231zM130 541l224 163l162 -50l-304 -113h-82z" />
    <glyph glyph-name="ocircumflex" unicode="&#xf4;" horiz-adv-x="595" 
d="M299 471c179 0 258 -108 258 -240c0 -131 -79 -240 -258 -240s-258 109 -258 240c0 132 79 240 258 240zM299 0c54 0 55 50 55 231s-1 231 -55 231c-55 0 -56 -50 -56 -231s1 -231 56 -231zM175 512h-41l165 193l165 -193h-41l-124 82z" />
    <glyph glyph-name="otilde" unicode="&#xf5;" horiz-adv-x="595" 
d="M299 471c179 0 258 -108 258 -240c0 -131 -79 -240 -258 -240s-258 109 -258 240c0 132 79 240 258 240zM299 0c54 0 55 50 55 231s-1 231 -55 231c-55 0 -56 -50 -56 -231s1 -231 56 -231zM351 522l-119 47c-33 13 -154 37 -181 -17l-4 1c83 193 216 127 216 127
l119 -46c34 -15 154 -37 182 17l4 -1c-85 -184 -217 -128 -217 -128z" />
    <glyph glyph-name="odieresis" unicode="&#xf6;" horiz-adv-x="595" 
d="M299 471c179 0 258 -108 258 -240c0 -131 -79 -240 -258 -240s-258 109 -258 240c0 132 79 240 258 240zM299 0c54 0 55 50 55 231s-1 231 -55 231c-55 0 -56 -50 -56 -231s1 -231 56 -231zM274 609c0 -39 -32 -71 -69 -71c-39 0 -71 32 -71 71c0 38 32 69 71 69
c37 0 69 -31 69 -69zM462 609c0 -39 -32 -71 -69 -71c-39 0 -71 32 -71 71c0 38 32 69 71 69c37 0 69 -31 69 -69z" />
    <glyph glyph-name="divide" unicode="&#xf7;" horiz-adv-x="625" 
d="M581 215h-536v123h536v-123zM390 493c0 -43 -35 -78 -78 -78s-77 35 -77 78c0 42 34 78 77 78s78 -36 78 -78zM390 60c0 -44 -35 -78 -78 -78s-77 34 -77 78c0 42 34 77 77 77s78 -35 78 -77z" />
    <glyph glyph-name="oslash" unicode="&#xf8;" horiz-adv-x="595" 
d="M427 447c91 -38 130 -121 130 -216c0 -131 -79 -240 -258 -240c-45 0 -83 7 -116 19l-42 -77h-11l44 81c-91 38 -133 122 -133 217c0 132 79 240 258 240c44 0 85 -9 118 -20l41 74h12zM243 231v-91l110 197c-3 92 -13 125 -54 125c-55 0 -56 -50 -56 -231zM299 0
c54 0 55 50 55 231c0 33 0 60 -1 85l-109 -197c3 -92 13 -119 55 -119z" />
    <glyph glyph-name="ugrave" unicode="&#xf9;" 
d="M544 89c0 -48 9 -58 51 -63v-8l-192 -26c-27 -4 -28 19 -28 19v82c-8 -52 -57 -102 -140 -102c-79 0 -162 33 -162 153v222c0 60 2 69 -56 77v8l228 20v-324c0 -56 14 -83 65 -83c28 0 55 13 65 56v243c0 61 4 74 -47 80v8l216 20v-382zM250 704l224 -163h-82l-304 113z
" />
    <glyph glyph-name="uacute" unicode="&#xfa;" 
d="M544 89c0 -48 9 -58 51 -63v-8l-192 -26c-27 -4 -28 19 -28 19v82c-8 -52 -57 -102 -140 -102c-79 0 -162 33 -162 153v222c0 60 2 69 -56 77v8l228 20v-324c0 -56 14 -83 65 -83c28 0 55 13 65 56v243c0 61 4 74 -47 80v8l216 20v-382zM152 541l224 163l162 -50
l-304 -113h-82z" />
    <glyph glyph-name="ucircumflex" unicode="&#xfb;" 
d="M544 89c0 -48 9 -58 51 -63v-8l-192 -26c-27 -4 -28 19 -28 19v82c-8 -52 -57 -102 -140 -102c-79 0 -162 33 -162 153v222c0 60 2 69 -56 77v8l228 20v-324c0 -56 14 -83 65 -83c28 0 55 13 65 56v243c0 61 4 74 -47 80v8l216 20v-382zM189 512h-41l165 193l165 -193
h-41l-124 82z" />
    <glyph glyph-name="udieresis" unicode="&#xfc;" 
d="M281 609c0 -39 -32 -71 -69 -71c-39 0 -71 32 -71 71c0 38 32 69 71 69c37 0 69 -31 69 -69zM469 609c0 -39 -32 -71 -69 -71c-39 0 -71 32 -71 71c0 38 32 69 71 69c37 0 69 -31 69 -69zM544 89c0 -48 9 -58 51 -63v-8l-192 -26c-27 -4 -28 19 -28 19v82
c-8 -52 -57 -102 -140 -102c-79 0 -162 33 -162 153v222c0 60 2 69 -56 77v8l228 20v-324c0 -56 14 -83 65 -83c28 0 55 13 65 56v243c0 61 4 74 -47 80v8l216 20v-382z" />
    <glyph glyph-name="yacute" unicode="&#xfd;" horiz-adv-x="616" 
d="M601 462h-233v-8c125 0 76 -161 76 -161l-41 -121l-102 198s-44 84 23 84v8h-313v-8c20 -2 53 -10 81 -62l228 -454v0c-28 -100 -53 -81 -57 -66c-7 21 -22 37 -44 47c-43 19 -93 0 -113 -43c-18 -43 0 -93 43 -113c29 -13 74 -8 96 10c23 19 52 58 83 158l125 359
c53 126 76 164 148 164v8zM111 541l224 163l162 -50l-304 -113h-82z" />
    <glyph glyph-name="thorn" unicode="&#xfe;" horiz-adv-x="663" 
d="M317 0c56 0 100 65 100 225c0 117 -28 212 -100 212c-59 0 -78 -58 -82 -125v-173c5 -90 29 -139 82 -139zM407 471c137 0 211 -108 211 -232c0 -198 -132 -248 -260 -248c-55 0 -95 9 -123 23v-166c0 -55 5 -94 41 -104v-9h-250v9c38 11 39 53 39 104v771
c0 35 -11 49 -52 64v8l222 42v-337c28 49 79 75 172 75z" />
    <glyph glyph-name="ydieresis" unicode="&#xff;" horiz-adv-x="616" 
d="M300 609c0 -39 -32 -71 -69 -71c-39 0 -71 32 -71 71c0 38 32 69 71 69c37 0 69 -31 69 -69zM488 609c0 -39 -32 -71 -69 -71c-39 0 -71 32 -71 71c0 38 32 69 71 69c37 0 69 -31 69 -69zM601 462h-233v-8c125 0 76 -161 76 -161l-41 -121l-102 198s-44 84 23 84v8h-313
v-8c20 -2 53 -10 81 -62l228 -454v0c-28 -100 -53 -81 -57 -66c-7 21 -22 37 -44 47c-43 19 -93 0 -113 -43c-18 -43 0 -93 43 -113c29 -13 74 -8 96 10c23 19 52 58 83 158l125 359c53 126 76 164 148 164v8z" />
    <glyph glyph-name="Abreve" unicode="&#x102;" horiz-adv-x="762" 
d="M382 203l-100 225l-89 -225h189zM181 194l202 510h5l270 -613c36 -80 70 -81 90 -83v-8h-350v8c80 0 20 117 20 117l-32 69h-196c-20 -46 -2 -186 118 -186v-8h-288v8c30 2 84 10 161 186zM389 861c101 0 131 21 131 58h2c0 -89 -38 -153 -133 -153
c-97 0 -136 64 -136 153h3c0 -37 29 -58 133 -58z" />
    <glyph glyph-name="abreve" unicode="&#x103;" horiz-adv-x="567" 
d="M300 90v154c-82 -18 -81 -79 -81 -126c0 0 -1 -66 39 -66c17 0 31 14 42 38zM544 69l6 -5c-14 -44 -66 -73 -129 -73c0 0 -111 0 -120 90c-13 -52 -64 -90 -135 -90c-38 0 -125 17 -125 102c0 100 81 119 259 161v64c0 104 -59 160 -128 124c0 0 -22 -13 12 -25
c17 -6 28 -20 36 -38c15 -37 -2 -77 -39 -93c-36 -14 -77 3 -92 39c-10 26 -5 56 12 74c12 13 30 31 67 51c45 24 94 21 94 21c131 0 204 -82 204 -200v-149s0 -72 48 -70c0 0 25 0 30 17zM301 646c101 0 131 21 131 58h2c0 -89 -38 -153 -133 -153c-97 0 -136 64 -136 153
h3c0 -37 29 -58 133 -58z" />
    <glyph glyph-name="Aogonek" unicode="&#x104;" horiz-adv-x="762" 
d="M181 194l202 510h5l270 -613c36 -80 70 -81 90 -83v-8h-107c-49 -27 -63 -59 -56 -88c10 -38 45 -34 45 -34s32 1 32 20h10c0 -31 -3 -75 -61 -86c-94 -14 -110 55 -110 55c-17 64 19 106 78 133h-181v8c80 0 20 117 20 117l-32 69h-196c-20 -46 -2 -186 118 -186v-8
h-288v8c30 2 84 10 161 186zM382 203l-100 225l-89 -225h189z" />
    <glyph glyph-name="aogonek" unicode="&#x105;" horiz-adv-x="567" 
d="M544 69l6 -5c-13 -40 -58 -68 -113 -72c-38 -25 -49 -54 -42 -80c10 -38 45 -34 45 -34s32 1 32 20h10c0 -31 -3 -75 -61 -86c-94 -14 -110 55 -110 55c-16 62 16 102 71 130c-33 7 -76 28 -81 84c-13 -52 -64 -90 -135 -90c-38 0 -125 17 -125 102c0 100 81 119 259 161
v64c0 104 -59 160 -128 124c0 0 -22 -13 12 -25c17 -6 28 -20 36 -38c15 -37 -2 -77 -39 -93c-36 -14 -77 3 -92 39c-10 26 -5 56 12 74c12 13 30 31 67 51c45 24 94 21 94 21c131 0 204 -82 204 -200v-149s0 -72 48 -70c0 0 25 0 30 17zM300 90v154
c-82 -18 -81 -79 -81 -126c0 0 -1 -66 39 -66c17 0 31 14 42 38z" />
    <glyph glyph-name="Cacute" unicode="&#x106;" horiz-adv-x="722" 
d="M660 240h8l10 -202c-27 -18 -128 -46 -234 -46c-214 0 -404 134 -404 360s190 361 404 361c129 0 210 -27 234 -46l-10 -202h-8c-30 207 -143 239 -216 239c-111 0 -158 -78 -158 -352c0 -275 50 -352 158 -352c68 0 182 41 216 240zM222 735l224 163l162 -50l-304 -113
h-82z" />
    <glyph glyph-name="cacute" unicode="&#x107;" horiz-adv-x="515" 
d="M318 471c78 0 129 -34 153 -61c17 -18 25 -50 15 -76c-13 -39 -57 -59 -95 -44c-39 13 -59 56 -44 94c6 20 19 35 36 42c11 4 0 36 -60 36c-57 0 -82 -82 -82 -216c0 -108 46 -166 130 -166c50 0 87 19 101 53l7 -3c0 -62 -69 -139 -194 -139c-131 0 -240 101 -240 242
c0 137 84 238 273 238zM135 541l224 163l162 -50l-304 -113h-82z" />
    <glyph glyph-name="Ccaron" unicode="&#x10c;" horiz-adv-x="722" 
d="M660 240h8l10 -202c-27 -18 -128 -46 -234 -46c-214 0 -404 134 -404 360s190 361 404 361c129 0 210 -27 234 -46l-10 -202h-8c-30 207 -143 239 -216 239c-111 0 -158 -78 -158 -352c0 -275 50 -352 158 -352c68 0 182 41 216 240zM253 928h41l124 -82l124 82h41
l-165 -193z" />
    <glyph glyph-name="ccaron" unicode="&#x10d;" horiz-adv-x="515" 
d="M318 471c78 0 129 -34 153 -61c17 -18 25 -50 15 -76c-13 -39 -57 -59 -95 -44c-39 13 -59 56 -44 94c6 20 19 35 36 42c11 4 0 36 -60 36c-57 0 -82 -82 -82 -216c0 -108 46 -166 130 -166c50 0 87 19 101 53l7 -3c0 -62 -69 -139 -194 -139c-131 0 -240 101 -240 242
c0 137 84 238 273 238zM121 704h41l124 -82l124 82h41l-165 -193z" />
    <glyph glyph-name="Dcaron" unicode="&#x10e;" horiz-adv-x="816" 
d="M333 9c118 0 183 14 183 340c0 320 -60 346 -183 346h-44v-686h44zM333 704c199 0 434 -62 434 -355c0 -292 -235 -349 -434 -349h-296v9c43 0 59 60 59 128v429c0 62 -15 130 -59 130v8h296zM193 928h41l124 -82l124 82h41l-165 -193z" />
    <glyph glyph-name="dcaron" unicode="&#x10f;" horiz-adv-x="824" 
d="M671 704h121c0 -145 -160 -219 -160 -219l-8 13s47 41 47 206zM432 119v201c0 92 -43 142 -94 142c-49 0 -88 -41 -88 -211c0 -126 26 -197 99 -197c38 0 74 35 83 65zM601 90c0 -49 10 -60 51 -65v-8l-192 -25c-28 -5 -28 18 -28 18v89c-16 -71 -95 -108 -166 -108
c-139 0 -219 80 -219 237c0 166 107 243 251 243c78 0 115 -23 134 -44v205c0 35 -10 49 -51 64v8l220 42v-656z" />
    <glyph glyph-name="Dcroat" unicode="&#x110;" horiz-adv-x="823" 
d="M340 704c199 0 434 -62 434 -355c0 -292 -235 -349 -434 -349h-296v9c43 0 59 60 59 128v212h-82v9h82v208c0 62 -15 129 -59 129v9h296zM340 9c118 0 183 14 183 340c0 320 -60 346 -183 346h-44v-337h131v-9h-131v-340h44z" />
    <glyph glyph-name="dcroat" unicode="&#x111;" horiz-adv-x="677" 
d="M601 90c0 -49 10 -60 51 -65v-8l-192 -25c-28 -5 -28 18 -28 18v89c-16 -71 -95 -108 -166 -108c-139 0 -219 80 -219 237c0 166 107 243 251 243c78 0 115 -23 134 -44v145h-79v9h79v51c0 35 -10 49 -51 64v8l220 42v-165h77v-9h-77v-482zM432 119v201
c0 92 -43 142 -94 142c-49 0 -88 -41 -88 -211c0 -126 26 -197 99 -197c38 0 74 35 83 65z" />
    <glyph glyph-name="Eogonek" unicode="&#x118;" horiz-adv-x="683" 
d="M602 196h9v-196h-54c-49 -27 -63 -59 -56 -88c10 -38 45 -34 45 -34s32 1 32 20h10c0 -31 -3 -75 -61 -86c-94 -14 -110 55 -110 55c-17 64 19 106 78 133h-468v9c42 0 58 60 58 128v429c0 62 -14 130 -58 130v8h571v-205h-9c0 195 -273 196 -273 196h-36v-335h81
c1 0 107 -3 118 118h9v-245h-9c-11 120 -117 118 -118 118h-81v-342h36s286 -11 286 187z" />
    <glyph glyph-name="eogonek" unicode="&#x119;" horiz-adv-x="537" 
d="M289 471c106 0 207 -42 207 -230h-272c0 -152 48 -192 115 -207c50 -11 117 19 137 104l9 -2c-13 -70 -78 -137 -191 -144c-38 -25 -49 -54 -42 -80c10 -38 45 -34 45 -34s32 1 32 20h10c0 -31 -3 -75 -61 -86c-94 -14 -110 55 -110 55c-16 60 14 100 66 127
c-112 18 -197 115 -197 236c0 170 129 241 252 241zM224 250h127c0 126 -13 212 -58 212c-46 0 -69 -116 -69 -212z" />
    <glyph glyph-name="Ecaron" unicode="&#x11a;" horiz-adv-x="683" 
d="M173 928h41l124 -82l124 82h41l-165 -193zM602 196h9v-196h-584v9c42 0 58 60 58 128v429c0 62 -14 130 -58 130v8h571v-205h-9c0 195 -273 196 -273 196h-36v-335h81c1 0 107 -3 118 118h9v-245h-9c-11 120 -117 118 -118 118h-81v-342h36s286 -11 286 187z" />
    <glyph glyph-name="ecaron" unicode="&#x11b;" horiz-adv-x="537" 
d="M289 471c106 0 207 -42 207 -230h-272c0 -152 48 -192 115 -207c50 -11 117 19 137 104l9 -2c-13 -74 -86 -145 -211 -145c-131 0 -237 104 -237 239c0 170 129 241 252 241zM224 250h127c0 126 -13 212 -58 212c-46 0 -69 -116 -69 -212zM124 704h41l124 -82l124 82h41
l-165 -193z" />
    <glyph glyph-name="dotlessi" unicode="&#x131;" horiz-adv-x="326" 
d="M248 113c0 -55 5 -95 41 -105v-8h-250v8c38 11 39 54 39 105v244c0 35 -11 49 -52 64v8l222 42v-358z" />
    <glyph glyph-name="Lacute" unicode="&#x139;" horiz-adv-x="667" 
d="M572 217h-9c0 -186 -195 -208 -281 -208v0v616c0 72 8 70 51 70v9h-299v-9c43 0 49 4 49 -57v-544c0 -68 2 -85 -41 -85v-9h530v217zM102 735l224 163l162 -50l-304 -113h-82z" />
    <glyph glyph-name="lacute" unicode="&#x13a;" horiz-adv-x="311" 
d="M242 113c0 -55 5 -95 41 -105v-8h-250v8c38 11 39 53 39 105v519c0 35 -12 49 -53 64v8l223 42v-633zM-14 763l224 163l162 -50l-304 -113h-82z" />
    <glyph glyph-name="Lcaron" unicode="&#x13d;" horiz-adv-x="637" 
d="M379 704h121c0 -145 -160 -219 -160 -219l-8 13s47 41 47 206zM563 217h9v-217h-530v9c43 0 41 17 41 85v544c0 61 -6 57 -49 57v9h299v-9c-43 0 -51 2 -51 -70v-616v0c86 0 281 22 281 208z" />
    <glyph glyph-name="lcaron" unicode="&#x13e;" horiz-adv-x="483" 
d="M242 113c0 -55 5 -95 41 -105v-8h-250v8c38 11 39 53 39 105v519c0 35 -12 49 -53 64v8l223 42v-633zM315 704h121c0 -145 -160 -219 -160 -219l-8 13s47 41 47 206z" />
    <glyph glyph-name="Lslash" unicode="&#x141;" horiz-adv-x="637" 
d="M563 217h9v-217h-530v9c43 0 41 17 41 85v185l-138 -74v12l138 74v347c0 61 -6 57 -49 57v9h299v-9c-43 0 -51 2 -51 -70v-228l148 79v-12l-148 -79v-376v0c86 0 281 22 281 208z" />
    <glyph glyph-name="lslash" unicode="&#x142;" horiz-adv-x="381" 
d="M365 465l-85 -46v-306c0 -55 5 -95 41 -105v-8h-250v8c38 11 39 53 39 105v216l-98 -53v12l98 53v291c0 35 -12 49 -53 64v8l223 42v-315l85 46v-12z" />
    <glyph glyph-name="Nacute" unicode="&#x143;" horiz-adv-x="844" 
d="M676 0h-110l-377 537v-312c0 -80 5 -216 151 -216v-9h-318v9c138 0 158 137 158 216v324l-47 67c-60 79 -99 78 -125 80v8h319l340 -491v267c0 93 -32 216 -143 216v8h303v-8c-124 0 -151 -123 -151 -216v-480zM241 735l224 163l162 -50l-304 -113h-82z" />
    <glyph glyph-name="nacute" unicode="&#x144;" horiz-adv-x="593" 
d="M527 114c0 -55 6 -97 41 -106v-8h-250v8c38 11 40 55 40 106v201c0 57 -21 84 -69 84c-22 0 -45 -18 -59 -39v-247c0 -55 5 -95 41 -105v-8h-250v8c38 11 39 53 39 105v244c0 35 -11 49 -52 64v8l222 42v-97c26 53 79 97 133 97c80 0 164 -32 164 -152v-205zM130 541
l224 163l162 -50l-304 -113h-82z" />
    <glyph glyph-name="Ncaron" unicode="&#x147;" horiz-adv-x="844" 
d="M257 928h41l124 -82l124 82h41l-165 -193zM676 0h-110l-377 537v-312c0 -80 5 -216 151 -216v-9h-318v9c138 0 158 137 158 216v324l-47 67c-60 79 -99 78 -125 80v8h319l340 -491v267c0 93 -32 216 -143 216v8h303v-8c-124 0 -151 -123 -151 -216v-480z" />
    <glyph glyph-name="ncaron" unicode="&#x148;" horiz-adv-x="593" 
d="M527 114c0 -55 6 -97 41 -106v-8h-250v8c38 11 40 55 40 106v201c0 57 -21 84 -69 84c-22 0 -45 -18 -59 -39v-247c0 -55 5 -95 41 -105v-8h-250v8c38 11 39 53 39 105v244c0 35 -11 49 -52 64v8l222 42v-97c26 53 79 97 133 97c80 0 164 -32 164 -152v-205zM124 704h41
l124 -82l124 82h41l-165 -193z" />
    <glyph glyph-name="Ohungarumlaut" unicode="&#x150;" horiz-adv-x="817" 
d="M406 0c118 0 122 72 122 347c0 274 -4 357 -122 357c-119 0 -124 -83 -124 -357c0 -275 5 -347 124 -347zM406 713c220 0 365 -168 365 -366c0 -199 -145 -355 -365 -355s-365 156 -365 355c0 198 145 366 365 366zM181 735l224 163l162 -50l-304 -113h-82zM470 735
l224 163l162 -50l-304 -113h-82z" />
    <glyph glyph-name="ohungarumlaut" unicode="&#x151;" horiz-adv-x="598" 
d="M299 471c179 0 258 -108 258 -240c0 -131 -79 -240 -258 -240s-258 109 -258 240c0 132 79 240 258 240zM299 0c54 0 55 50 55 231s-1 231 -55 231c-55 0 -56 -50 -56 -231s1 -231 56 -231zM62 541l224 163l162 -50l-304 -113h-82zM351 541l224 163l162 -50l-304 -113
h-82z" />
    <glyph glyph-name="OE" unicode="&#x152;" horiz-adv-x="1089" 
d="M502 153c0 54 1 337 1 387c0 119 -31 164 -115 164c-88 0 -104 -83 -104 -357c0 -275 19 -347 104 -347c83 0 114 35 114 153zM1008 196h9v-196h-563c-27 -5 -36 -9 -66 -9c-220 0 -345 157 -345 356c0 198 125 366 345 366c30 0 38 -3 65 -9h551v-205h-9
c0 196 -253 196 -253 196h-36v-335h61c2 0 107 -2 118 118h9v-245h-9c-11 121 -116 118 -118 118h-61v-342h36s266 -10 266 187z" />
    <glyph glyph-name="oe" unicode="&#x153;" horiz-adv-x="818" 
d="M540 249h92c0 126 1 213 -44 213c-46 0 -48 -117 -48 -213zM356 231c0 181 -1 231 -55 231c-55 0 -56 -50 -56 -231s1 -231 56 -231c54 0 55 50 55 231zM757 140h9c-13 -74 -61 -149 -186 -149c-47 0 -90 14 -127 37c-39 -23 -89 -37 -152 -37c-179 0 -258 109 -258 240
c0 132 79 240 258 240c62 0 113 -17 152 -39c42 24 82 39 131 39c106 0 193 -43 193 -231h-237c0 -152 27 -191 94 -206c50 -11 103 21 123 106z" />
    <glyph glyph-name="Racute" unicode="&#x154;" horiz-adv-x="773" 
d="M304 334c130 0 143 -2 143 179c0 191 -26 182 -143 182h-31v-361h31zM670 127c20 -76 73 -116 99 -118v-9h-199c-71 0 -93 45 -117 231c-13 100 -133 94 -133 94h-47v-212c0 -98 4 -104 46 -104v-9h-299v9c43 0 52 2 52 104v494c0 62 -8 89 -52 89v8h284
c199 0 378 -24 378 -191c0 -150 -138 -181 -234 -181c115 0 173 -25 222 -205zM174 735l224 163l162 -50l-304 -113h-82z" />
    <glyph glyph-name="racute" unicode="&#x155;" horiz-adv-x="511" 
d="M462 448c39 -34 44 -94 10 -132c-34 -39 -92 -43 -132 -10c-19 18 -32 39 -32 62c0 13 -32 6 -73 -56v-199c0 -55 5 -95 41 -105v-8h-250v8c38 11 39 54 39 105v244c0 35 -12 49 -53 64v8l223 42v-140c71 107 101 119 131 133c28 13 70 7 96 -16zM106 541l224 163
l162 -50l-304 -113h-82z" />
    <glyph glyph-name="Rcaron" unicode="&#x158;" horiz-adv-x="773" 
d="M304 334c130 0 143 -2 143 179c0 191 -26 182 -143 182h-31v-361h31zM670 127c20 -76 73 -116 99 -118v-9h-199c-71 0 -93 45 -117 231c-13 100 -133 94 -133 94h-47v-212c0 -98 4 -104 46 -104v-9h-299v9c43 0 52 2 52 104v494c0 62 -8 89 -52 89v8h284
c199 0 378 -24 378 -191c0 -150 -138 -181 -234 -181c115 0 173 -25 222 -205zM189 928h41l124 -82l124 82h41l-165 -193z" />
    <glyph glyph-name="rcaron" unicode="&#x159;" horiz-adv-x="511" 
d="M462 448c39 -34 44 -94 10 -132c-34 -39 -92 -43 -132 -10c-19 18 -32 39 -32 62c0 13 -32 6 -73 -56v-199c0 -55 5 -95 41 -105v-8h-250v8c38 11 39 54 39 105v244c0 35 -12 49 -53 64v8l223 42v-140c71 107 101 119 131 133c28 13 70 7 96 -16zM70 704h41l124 -82
l124 82h41l-165 -193z" />
    <glyph glyph-name="Sacute" unicode="&#x15a;" horiz-adv-x="616" 
d="M439 397c132 -87 167 -215 92 -324c0 0 -54 -82 -227 -82c-194 0 -269 51 -269 51v192h9c16 -68 103 -234 260 -234c107 0 137 133 17 222l-154 97c-142 89 -177 211 -92 318c0 0 55 76 219 76c171 0 237 -46 237 -46v-168h-9c-20 72 -68 205 -228 205
c-108 0 -139 -120 -9 -205zM133 735l224 163l162 -50l-304 -113h-82z" />
    <glyph glyph-name="sacute" unicode="&#x15b;" horiz-adv-x="444" 
d="M313 279c91 -55 114 -168 59 -234c0 0 -38 -54 -154 -54c-121 0 -178 34 -178 34v131h9c20 -93 103 -156 169 -156c71 0 87 83 11 133l-101 61c-94 62 -119 161 -58 229c0 0 37 48 151 48c115 0 163 -28 163 -28v-102h-9c-18 90 -96 121 -154 121c-65 0 -96 -65 -9 -120z
M57 541l224 163l162 -50l-304 -113h-82z" />
    <glyph glyph-name="Scedilla" unicode="&#x15e;" horiz-adv-x="616" 
d="M439 397c132 -87 167 -215 92 -324c0 0 -54 -82 -227 -82h-5l-18 -49c94 21 141 -29 135 -86c-8 -67 -68 -78 -113 -78c-43 0 -60 14 -69 22c-9 7 -15 22 -13 36c5 19 24 31 44 26c20 -4 32 -23 28 -42c-4 -12 -9 -19 -18 -22c-6 -3 1 -11 23 -11c27 0 39 24 39 45
c0 16 -11 74 -86 60l39 99c-184 3 -255 51 -255 51v192h9c16 -68 103 -234 260 -234c107 0 137 133 17 222l-154 97c-142 89 -177 211 -92 318c0 0 55 76 219 76c171 0 237 -46 237 -46v-168h-9c-20 72 -68 205 -228 205c-108 0 -139 -120 -9 -205z" />
    <glyph glyph-name="scedilla" unicode="&#x15f;" horiz-adv-x="444" 
d="M313 279c91 -55 114 -168 59 -234c0 0 -38 -54 -154 -54h-18l-18 -49c94 21 141 -29 135 -86c-8 -67 -68 -78 -113 -78c-43 0 -60 14 -69 22c-9 7 -15 22 -13 36c5 19 24 31 44 26c20 -4 32 -23 28 -42c-4 -12 -9 -19 -18 -22c-6 -3 1 -11 23 -11c27 0 39 24 39 45
c0 16 -11 74 -86 60l39 99c-103 4 -151 34 -151 34v131h9c20 -93 103 -156 169 -156c71 0 87 83 11 133l-101 61c-94 62 -119 161 -58 229c0 0 37 48 151 48c115 0 163 -28 163 -28v-102h-9c-18 90 -96 121 -154 121c-65 0 -96 -65 -9 -120z" />
    <glyph glyph-name="Scaron" unicode="&#x160;" horiz-adv-x="617" 
d="M439 397c132 -87 167 -215 92 -324c0 0 -54 -82 -227 -82c-194 0 -269 51 -269 51v192h9c16 -68 103 -234 260 -234c107 0 137 133 17 222l-154 97c-142 89 -177 211 -92 318c0 0 55 76 219 76c171 0 237 -46 237 -46v-168h-9c-20 72 -68 205 -228 205
c-108 0 -139 -120 -9 -205zM127 928h41l124 -82l124 82h41l-165 -193z" />
    <glyph glyph-name="scaron" unicode="&#x161;" horiz-adv-x="445" 
d="M313 279c91 -55 114 -168 59 -234c0 0 -38 -54 -154 -54c-121 0 -178 34 -178 34v131h9c20 -93 103 -156 169 -156c71 0 87 83 11 133l-101 61c-94 62 -119 161 -58 229c0 0 37 48 151 48c115 0 163 -28 163 -28v-102h-9c-18 90 -96 121 -154 121c-65 0 -96 -65 -9 -120z
M53 684h41l124 -82l124 82h41l-165 -193z" />
    <glyph glyph-name="uni0162" unicode="&#x162;" horiz-adv-x="754" 
d="M20 704h715v-225h-8c-5 115 -153 216 -236 216h-11v-582c0 -68 5 -104 45 -104v-9h-166l-21 -58c94 21 141 -29 135 -86c-8 -67 -68 -78 -113 -78c-43 0 -60 14 -69 22c-9 7 -15 22 -13 36c5 19 24 31 44 26c20 -4 32 -23 28 -42c-4 -12 -9 -19 -18 -22
c-6 -3 1 -11 23 -11c27 0 39 24 39 45c0 16 -11 74 -86 60l42 108h-120v9c40 0 45 36 45 104v582h-11c-84 0 -231 -101 -236 -216h-8v225z" />
    <glyph glyph-name="uni0163" unicode="&#x163;" horiz-adv-x="399" 
d="M320 64c29 0 49 16 61 30l6 -4c-12 -53 -70 -99 -144 -99c-18 0 -36 2 -53 5l-20 -54c94 21 141 -29 135 -86c-8 -67 -68 -78 -113 -78c-43 0 -60 14 -69 22c-9 7 -15 22 -13 36c5 19 24 31 44 26c20 -4 32 -23 28 -42c-4 -12 -9 -19 -18 -22c-6 -3 1 -11 23 -11
c27 0 39 24 39 45c0 16 -11 74 -86 60l42 106c-58 14 -108 56 -108 146v309h-63v9h63v134l168 21v-155h129v-9h-129v-306c0 -56 20 -83 78 -83z" />
    <glyph glyph-name="Tcaron" unicode="&#x164;" horiz-adv-x="754" 
d="M20 704h715v-225h-8c-5 115 -153 216 -236 216h-11v-582c0 -68 5 -104 45 -104v-9h-295v9c40 0 45 36 45 104v582h-11c-84 0 -231 -101 -236 -216h-8v225zM216 928h41l124 -82l124 82h41l-165 -193z" />
    <glyph glyph-name="tcaron" unicode="&#x165;" horiz-adv-x="461" 
d="M320 64c29 0 49 16 61 30l6 -4c-12 -53 -70 -99 -144 -99c-79 0 -169 32 -169 153v309h-63v9h63v134l168 21v-155h129v-9h-129v-306c0 -56 20 -83 78 -83zM314 704h121c0 -145 -160 -219 -160 -219l-8 13s47 41 47 206z" />
    <glyph glyph-name="Uring" unicode="&#x16e;" horiz-adv-x="737" 
d="M320 -9c176 0 264 97 264 228v260c0 82 21 216 133 216l-1 9h-262v-9c95 0 121 -134 121 -216v-260c0 -93 -54 -168 -161 -168c-95 0 -157 50 -157 168v388c0 72 -2 88 41 88v9h-286v-9c44 0 40 -27 40 -88v-381c0 -163 132 -235 268 -235zM378 920
c-22 0 -39 -17 -39 -39s17 -40 39 -40s39 18 39 40s-17 39 -39 39zM378 981c57 0 103 -43 103 -100c0 -56 -46 -102 -103 -102c-56 0 -103 46 -103 102c0 57 47 100 103 100z" />
    <glyph glyph-name="uring" unicode="&#x16f;" 
d="M544 89c0 -48 9 -58 51 -63v-8l-192 -26c-27 -4 -28 19 -28 19v82c-8 -52 -57 -102 -140 -102c-79 0 -162 33 -162 153v222c0 60 2 69 -56 77v8l228 20v-324c0 -56 14 -83 65 -83c28 0 55 13 65 56v243c0 61 4 74 -47 80v8l216 20v-382zM303 654c-22 0 -39 -17 -39 -39
s17 -40 39 -40s39 18 39 40s-17 39 -39 39zM303 715c57 0 103 -43 103 -100c0 -56 -46 -102 -103 -102c-56 0 -103 46 -103 102c0 57 47 100 103 100z" />
    <glyph glyph-name="Uhungarumlaut" unicode="&#x170;" horiz-adv-x="737" 
d="M659 898l162 -50l-304 -113h-82zM370 898l162 -50l-304 -113h-82zM320 -9c176 0 264 97 264 228v260c0 82 21 216 133 216l-1 9h-262v-9c95 0 121 -134 121 -216v-260c0 -93 -53 -168 -161 -168c-95 0 -157 50 -157 168v388c0 72 -2 88 41 88v9h-286v-9
c44 0 40 -27 40 -88v-381c0 -163 132 -235 268 -235z" />
    <glyph glyph-name="uhungarumlaut" unicode="&#x171;" 
d="M51 541l224 163l162 -50l-304 -113h-82zM340 541l224 163l162 -50l-304 -113h-82zM544 89c0 -48 9 -58 51 -63v-8l-192 -26c-27 -4 -28 19 -28 19v82c-8 -52 -57 -102 -140 -102c-79 0 -162 33 -162 153v222c0 60 2 69 -56 77v8l228 20v-324c0 -56 14 -83 65 -83
c28 0 55 13 65 56v243c0 61 4 74 -47 80v8l216 20v-382z" />
    <glyph glyph-name="Ydieresis" unicode="&#x178;" horiz-adv-x="777" 
d="M473 335c0 0 50 99 78 160c23 48 47 201 -76 201v8h290v-8c-62 0 -135 -63 -206 -205l-81 -164v-214c0 -68 -7 -104 35 -104v-9h-269v9c42 0 37 36 37 104v163l-195 342c-44 76 -51 76 -77 79v7h301v-7c-40 0 -51 1 17 -114zM360 833c0 -39 -32 -71 -69 -71
c-39 0 -71 32 -71 71c0 38 32 69 71 69c37 0 69 -31 69 -69zM548 833c0 -39 -32 -71 -69 -71c-39 0 -71 32 -71 71c0 38 32 69 71 69c37 0 69 -31 69 -69z" />
    <glyph glyph-name="Zacute" unicode="&#x179;" horiz-adv-x="687" 
d="M636 704l-355 -695h10c193 0 310 47 330 224h8l-15 -233h-589l382 695h-47c-173 0 -288 -73 -304 -193h-8l13 202h575zM198 735l224 163l162 -50l-304 -113h-82z" />
    <glyph glyph-name="zacute" unicode="&#x17a;" horiz-adv-x="529" 
d="M101 541l224 163l162 -50l-304 -113h-82zM493 462l-242 -453c150 0 200 103 214 143h8l-9 -152h-435l258 453c-134 0 -198 -57 -221 -123h-8l5 132h430z" />
    <glyph glyph-name="Zdotaccent" unicode="&#x17b;" horiz-adv-x="687" 
d="M444 847c0 -39 -32 -71 -69 -71c-39 0 -71 32 -71 71c0 38 32 69 71 69c37 0 69 -31 69 -69zM636 704l-355 -695h10c193 0 310 47 330 224h8l-15 -233h-589l382 695h-47c-173 0 -288 -73 -304 -193h-8l13 202h575z" />
    <glyph glyph-name="zdotaccent" unicode="&#x17c;" horiz-adv-x="529" 
d="M493 462l-242 -453c150 0 200 103 214 143h8l-9 -152h-435l258 453c-134 0 -198 -57 -221 -123h-8l5 132h430zM354 606c0 -39 -32 -71 -69 -71c-39 0 -71 32 -71 71c0 38 32 69 71 69c37 0 69 -31 69 -69z" />
    <glyph glyph-name="Zcaron" unicode="&#x17d;" horiz-adv-x="687" 
d="M636 704l-355 -695h10c193 0 310 47 330 224h8l-15 -233h-589l382 695h-47c-173 0 -288 -73 -304 -193h-8l13 202h575zM179 928h41l124 -82l124 82h41l-165 -193z" />
    <glyph glyph-name="zcaron" unicode="&#x17e;" horiz-adv-x="529" 
d="M116 684h41l124 -82l124 82h41l-165 -193zM493 462l-242 -453c150 0 200 103 214 143h8l-9 -152h-435l258 453c-134 0 -198 -57 -221 -123h-8l5 132h430z" />
    <glyph glyph-name="florin" unicode="&#x192;" horiz-adv-x="751" 
d="M701 684c13 -20 16 -54 5 -78c-17 -34 -59 -48 -92 -32c-35 17 -50 59 -32 93c8 17 22 30 39 35c8 2 12 25 -31 25c-74 0 -103 -229 -103 -229l-16 -123h128l-2 -9h-127l-37 -268c-32 -242 -130 -337 -282 -337c-61 0 -102 32 -115 53s-16 54 -5 78c18 35 59 49 93 33
c34 -18 49 -59 31 -94c-8 -17 -21 -30 -37 -34c-10 -2 -13 -28 35 -28c71 0 100 228 100 228l48 369h-115l2 9h114c49 281 147 360 289 360c49 0 98 -30 110 -51z" />
    <glyph glyph-name="circumflex" unicode="&#x2c6;" horiz-adv-x="330" 
d="M330 531h-41l-124 82l-124 -82h-41l165 193z" />
    <glyph glyph-name="caron" unicode="&#x2c7;" horiz-adv-x="330" 
d="M0 720h41l124 -82l124 82h41l-165 -193z" />
    <glyph glyph-name="uni02C9" unicode="&#x2c9;" horiz-adv-x="330" 
d="M-25 671h355v-100h-355v100z" />
    <glyph glyph-name="breve" unicode="&#x2d8;" horiz-adv-x="267" 
d="M135 646c101 0 131 21 131 58h2c0 -89 -38 -153 -133 -153c-97 0 -136 64 -136 153h3c0 -37 29 -58 133 -58z" />
    <glyph glyph-name="dotaccent" unicode="&#x2d9;" horiz-adv-x="281" 
d="M216 646c0 -39 -32 -71 -69 -71c-39 0 -71 32 -71 71c0 38 32 69 71 69c37 0 69 -31 69 -69z" />
    <glyph glyph-name="ring" unicode="&#x2da;" horiz-adv-x="278" 
d="M141 676c-22 0 -39 -17 -39 -39s17 -40 39 -40s39 18 39 40s-17 39 -39 39zM141 737c57 0 103 -43 103 -100c0 -56 -46 -102 -103 -102c-56 0 -103 46 -103 102c0 57 47 100 103 100z" />
    <glyph glyph-name="ogonek" unicode="&#x2db;" horiz-adv-x="278" 
d="M247 -22c-49 -27 -63 -59 -56 -88c10 -38 45 -34 45 -34s32 1 32 20h10c0 -31 -3 -75 -61 -86c-94 -14 -110 55 -110 55c-22 84 47 129 140 155v-22z" />
    <glyph glyph-name="tilde" unicode="&#x2dc;" horiz-adv-x="478" 
d="M283 529l-119 47c-33 13 -154 47 -181 -7l-4 1c83 193 216 137 216 137l119 -46c34 -15 154 -47 182 7l4 -1c-85 -184 -217 -138 -217 -138z" />
    <glyph glyph-name="hungarumlaut" unicode="&#x2dd;" horiz-adv-x="791" 
d="M87 558l224 163l162 -50l-304 -113h-82zM376 558l224 163l162 -50l-304 -113h-82z" />
    <glyph glyph-name="uni03A9" unicode="&#x3a9;" horiz-adv-x="768" 
d="M729 195h8l-41 -195h-269s58 250 58 445c0 235 -29 282 -103 282s-102 -47 -102 -282c0 -195 58 -445 58 -445h-269l-41 195h8c21 -40 66 -56 98 -56h158s-2 17 -39 33c-80 31 -189 129 -189 278c0 193 135 286 318 286s319 -93 319 -286c0 -149 -109 -247 -188 -278
c-37 -16 -39 -33 -39 -33h157c32 0 77 16 98 56z" />
    <glyph glyph-name="uni03BC" unicode="&#x3bc;" horiz-adv-x="618" 
d="M546 89c0 -49 10 -59 52 -63v-9l-193 -25c-27 -5 -28 19 -28 19v89c-16 -85 -100 -109 -131 -109v-157c0 -49 10 -60 52 -64v-8l-202 -26c-29 -5 -29 19 -29 19v608c0 61 4 74 -47 80v8l226 20v-323c0 -57 15 -83 74 -83c28 0 50 26 57 65v233c0 61 4 74 -47 80v8l216 20
v-382z" />
    <glyph glyph-name="pi" unicode="&#x3c0;" horiz-adv-x="610" 
d="M550 65l6 -5c-9 -26 -43 -69 -102 -69c-111 0 -106 99 -106 99v260h-87l-11 -175c-6 -161 -181 -215 -183 -216l-5 7c65 50 84 139 88 215l11 168v0c-57 -1 -100 3 -144 -53l-9 4s15 180 167 180h282c71 0 118 4 124 48h9c0 -85 -2 -178 -103 -178v0v-235
c0 -68 37 -66 37 -66c19 0 26 16 26 16z" />
    <glyph glyph-name="uni2010" unicode="&#x2010;" horiz-adv-x="447" 
d="M379 188h-315v133h315v-133z" />
    <glyph glyph-name="endash" unicode="&#x2013;" horiz-adv-x="561" 
d="M0 306h561v-108h-561v108z" />
    <glyph glyph-name="emdash" unicode="&#x2014;" horiz-adv-x="1055" 
d="M0 306h1055v-108h-1055v108z" />
    <glyph glyph-name="quoteleft" unicode="&#x2018;" horiz-adv-x="294" 
d="M81 434c-63 63 -7 173 28 222c14 22 47 53 94 80l7 -10c-54 -43 -72 -112 -54 -115c25 -2 50 -10 70 -29c41 -41 41 -106 1 -148c-41 -40 -106 -40 -146 0z" />
    <glyph glyph-name="quoteright" unicode="&#x2019;" horiz-adv-x="308" 
d="M233 705c63 -63 7 -173 -28 -222c-14 -22 -47 -53 -94 -80l-7 10c54 43 72 112 54 115c-25 2 -50 10 -70 29c-41 41 -41 106 -1 148c41 40 106 40 146 0z" />
    <glyph glyph-name="quotesinglbase" unicode="&#x201a;" horiz-adv-x="316" 
d="M231 170c63 -63 7 -173 -28 -222c-14 -22 -47 -53 -94 -80l-7 10c54 43 72 112 54 115c-25 2 -50 10 -70 29c-41 41 -41 106 -1 148c41 40 106 40 146 0z" />
    <glyph glyph-name="quotedblleft" unicode="&#x201c;" horiz-adv-x="595" 
d="M81 434c-63 63 -7 173 28 222c14 22 47 53 94 80l7 -10c-54 -43 -72 -112 -54 -115c25 -2 50 -10 70 -29c41 -41 41 -106 1 -148c-41 -40 -106 -40 -146 0zM358 434c-63 63 -7 173 28 222c14 22 47 53 94 80l7 -10c-54 -43 -72 -112 -54 -115c25 -2 50 -10 70 -29
c41 -41 41 -106 1 -148c-41 -40 -106 -40 -146 0z" />
    <glyph glyph-name="quotedblright" unicode="&#x201d;" horiz-adv-x="594" 
d="M509 705c63 -63 7 -173 -28 -222c-14 -22 -47 -53 -94 -80l-7 10c54 43 72 112 54 115c-25 2 -50 10 -70 29c-41 41 -41 106 -1 148c41 40 106 40 146 0zM232 705c63 -63 7 -173 -28 -222c-14 -22 -47 -53 -94 -80l-7 10c54 43 72 112 54 115c-25 2 -50 10 -70 29
c-41 41 -41 106 -1 148c41 40 106 40 146 0z" />
    <glyph glyph-name="quotedblbase" unicode="&#x201e;" horiz-adv-x="584" 
d="M506 169c63 -63 7 -173 -28 -222c-14 -22 -47 -53 -94 -80l-7 10c54 43 72 112 54 115c-25 2 -50 10 -70 29c-41 41 -41 106 -1 148c41 40 106 40 146 0zM229 169c63 -63 7 -173 -28 -222c-14 -22 -47 -53 -94 -80l-7 10c54 43 72 112 54 115c-25 2 -50 10 -70 29
c-41 41 -41 106 -1 148c41 40 106 40 146 0z" />
    <glyph glyph-name="dagger" unicode="&#x2020;" horiz-adv-x="467" 
d="M30 471c29 30 80 10 108 -10c12 -8 29 -24 45 -51l-6 -4c-24 31 -64 39 -65 31c-1 -12 -5 -23 -14 -32c-18 -20 -48 -20 -68 -1c-18 19 -19 49 0 67zM436 471c19 -18 19 -48 0 -67s-49 -19 -68 1c-9 9 -13 20 -14 32c-1 8 -41 0 -66 -31l-7 4c16 27 35 43 48 51
c28 20 78 40 107 10zM289 701c0 -31 -26 -56 -56 -56c-31 0 -56 25 -56 56c0 30 25 55 56 55c30 0 56 -25 56 -55zM239 403c0 -41 6 -49 62 -116c-50 -256 -64 -552 -64 -552h-9s-13 296 -63 552c57 68 62 74 62 116c0 53 -36 84 -36 137c0 0 -3 66 42 66
c46 0 42 -66 42 -66c0 -53 -36 -81 -36 -137z" />
    <glyph glyph-name="daggerdbl" unicode="&#x2021;" horiz-adv-x="591" 
d="M129 387c-23 -23 -60 -23 -84 0c-23 23 -23 60 0 83c35 36 97 11 132 -13c15 -10 36 -30 55 -62l-7 -5c-30 37 -78 47 -79 37c-1 -14 -6 -29 -17 -40zM443 427c-1 10 -51 0 -82 -37l-5 5c18 32 40 52 55 62c34 24 96 49 132 13c23 -23 23 -60 0 -83
c-24 -23 -61 -23 -84 0c-11 11 -16 26 -16 40zM294 616c-38 0 -69 30 -69 68s31 69 69 69c37 0 68 -31 68 -69s-31 -68 -68 -68zM368 246c-67 -47 -67 -103 -67 -103c0 -65 42 -76 42 -141c0 0 4 -75 -49 -75s-50 75 -50 75c0 65 42 72 42 141c0 0 0 56 -68 103
c68 41 68 104 68 104c0 64 -42 75 -42 141c0 0 -3 75 50 75s49 -75 49 -75c0 -66 -42 -73 -42 -141c0 0 0 -63 67 -104zM543 111c23 -23 23 -60 0 -83c-36 -36 -98 -11 -132 12c-15 12 -37 30 -55 64l5 4c31 -38 81 -47 82 -38c0 15 5 29 16 41c23 24 60 24 84 0zM146 70
c0 -9 49 0 79 38l7 -4c-19 -34 -40 -52 -55 -64c-35 -23 -97 -48 -132 -12c-23 23 -23 60 0 83c23 24 61 24 84 0c11 -12 16 -26 17 -41zM294 -121c37 0 68 -31 68 -68c0 -39 -31 -69 -68 -69c-38 0 -69 30 -69 69c0 37 31 68 69 68z" />
    <glyph glyph-name="bullet" unicode="&#x2022;" horiz-adv-x="523" 
d="M268 196c-79 0 -144 64 -144 144c0 81 65 145 144 145c81 0 146 -64 146 -145c0 -80 -65 -144 -146 -144z" />
    <glyph glyph-name="ellipsis" unicode="&#x2026;" horiz-adv-x="984" 
d="M292 94c0 -58 -46 -103 -102 -103c-58 0 -104 45 -104 103c0 57 46 104 104 104c56 0 102 -47 102 -104zM580 94c0 -58 -46 -103 -102 -103c-58 0 -104 45 -104 103c0 57 46 104 104 104c56 0 102 -47 102 -104zM889 94c0 -58 -46 -103 -102 -103c-58 0 -104 45 -104 103
c0 57 46 104 104 104c56 0 102 -47 102 -104z" />
    <glyph glyph-name="perthousand" unicode="&#x2030;" horiz-adv-x="1294" 
d="M187 679c115 0 169 -84 169 -183c0 -98 -54 -176 -169 -176c-116 0 -170 78 -170 176c0 99 54 183 170 183zM187 329c47 0 50 31 50 167c0 137 -5 174 -50 174c-47 0 -51 -37 -51 -174c0 -136 5 -167 51 -167zM686 384c115 0 170 -83 170 -182s-55 -176 -170 -176
c-116 0 -170 77 -170 176s54 182 170 182zM686 35c48 0 50 30 50 167c0 136 -5 173 -50 173c-47 0 -51 -37 -51 -173c0 -137 5 -167 51 -167zM667 704h100l-551 -704h-99zM1074 384c115 0 170 -83 170 -182s-55 -176 -170 -176c-116 0 -170 77 -170 176s54 182 170 182z
M1074 35c48 0 50 30 50 167c0 136 -5 173 -50 173c-47 0 -51 -37 -51 -173c0 -137 5 -167 51 -167z" />
    <glyph glyph-name="guilsinglleft" unicode="&#x2039;" horiz-adv-x="385" 
d="M335 505v-49l-118 -190l118 -184v-49l-286 233z" />
    <glyph glyph-name="guilsinglright" unicode="&#x203a;" horiz-adv-x="385" 
d="M49 456v49l286 -239l-286 -233v49l118 184z" />
    <glyph glyph-name="fraction" unicode="&#x2044;" horiz-adv-x="395" 
d="M458 734h95l-605 -734h-94z" />
    <glyph glyph-name="Euro" unicode="&#x20ac;" horiz-adv-x="665" 
d="M609 190h8l10 -152c-27 -18 -68 -47 -174 -47c-197 0 -314 114 -332 307h-107l4 9h103c-2 15 -2 29 -2 45s0 31 2 46h-107l4 9h103c19 193 136 306 332 306c129 0 150 -27 174 -46l-10 -152h-8c-26 180 -87 189 -156 189c-103 0 -112 -67 -113 -297h187l-5 -9h-182v-46
v-45h171l-5 -9h-166c1 -231 12 -298 113 -298c63 0 126 18 156 190z" />
    <glyph glyph-name="afii61289" unicode="&#x2113;" horiz-adv-x="386" 
d="M355 100l9 -6c3 -66 -61 -103 -120 -103c-91 0 -159 30 -159 198v36l-63 -48v72l63 47v205c0 238 164 278 232 206c57 -67 70 -228 -39 -354l-40 -47l-2 -123c0 -103 17 -135 70 -135c19 0 49 11 49 52zM239 503v-112l26 25c140 135 61 260 47 283c-4 7 -73 85 -73 -196z
" />
    <glyph glyph-name="trademark" unicode="&#x2122;" horiz-adv-x="755" 
d="M12 704h293v-86h-9c-3 62 -67 77 -86 77h-10v-227c0 -28 1 -42 18 -42v-9h-120v9c17 0 18 14 18 42v227h-10c-20 0 -82 -15 -85 -77h-9v86zM559 517l71 187h100v-9c-20 0 -19 -7 -19 -32v-208c0 -28 3 -29 23 -29v-9h-125v9c20 0 21 1 21 29v221l-97 -262h-12l-130 243
v-132c0 -53 13 -99 60 -99v-9h-127v9c43 0 58 45 58 99v144c-14 26 -26 26 -37 26v9h116z" />
    <glyph glyph-name="Omega" unicode="&#x2126;" horiz-adv-x="768" 
d="M729 195h8l-41 -195h-269s58 250 58 445c0 235 -29 282 -103 282s-102 -47 -102 -282c0 -195 58 -445 58 -445h-269l-41 195h8c21 -40 66 -56 98 -56h158s-2 17 -39 33c-80 31 -189 129 -189 278c0 193 135 286 318 286s319 -93 319 -286c0 -149 -109 -247 -188 -278
c-37 -16 -39 -33 -39 -33h157c32 0 77 16 98 56z" />
    <glyph glyph-name="estimated" unicode="&#x212e;" horiz-adv-x="892" 
d="M663 655c-63 37 -138 59 -219 59c-79 0 -153 -21 -215 -57v-273h434v271zM857 367h-628v-291c62 -36 136 -57 215 -57c118 0 224 47 296 120h28c-76 -85 -193 -140 -324 -140c-228 0 -413 165 -413 368c0 202 185 367 413 367s413 -165 413 -367z" />
    <glyph glyph-name="partialdiff" unicode="&#x2202;" horiz-adv-x="621" 
d="M283 744c187 0 317 -161 296 -417c-17 -208 -113 -336 -296 -336c-153 0 -255 80 -242 241c10 115 67 225 220 225c46 0 117 -22 136 -93c23 287 -25 371 -114 371c-64 0 -150 -95 -149 -167l-5 -1l-61 100c40 47 111 77 215 77zM283 0c68 0 91 109 112 344
c-23 53 -44 69 -74 69c-55 0 -88 -70 -100 -207c-13 -161 -7 -206 62 -206z" />
    <glyph glyph-name="Delta" unicode="&#x2206;" horiz-adv-x="720" 
d="M393 738l285 -706l-15 -32h-625l-6 26l1 2l278 692zM85 44h409l-205 483z" />
    <glyph glyph-name="product" unicode="&#x220f;" horiz-adv-x="860" 
d="M829 695c-49 0 -76 -30 -76 -99v-555c0 -77 28 -117 76 -117v-9h-355v9c48 0 76 40 76 117v522c0 110 -27 132 -76 132h-94c-48 0 -75 -22 -75 -132v-522c0 -77 28 -117 75 -117v-9h-354v9c48 0 75 40 75 117v555c0 69 -25 99 -75 99v9h803v-9z" />
    <glyph glyph-name="summation" unicode="&#x2211;" horiz-adv-x="723" 
d="M262 695l204 -355l-252 -428v0c316 0 444 186 470 256h11l-27 -266h-587l193 338l-253 464h635l22 -231h-13c-40 115 -229 222 -403 222v0z" />
    <glyph glyph-name="minus" unicode="&#x2212;" horiz-adv-x="626" 
d="M581 188h-533v133h533v-133z" />
    <glyph glyph-name="uni2215" unicode="&#x2215;" horiz-adv-x="405" 
d="M458 734h95l-605 -734h-94z" />
    <glyph glyph-name="uni2219" unicode="&#x2219;" horiz-adv-x="295" 
d="M223 298c0 -40 -32 -72 -73 -72c-40 0 -72 32 -72 72s32 73 72 73c41 0 73 -33 73 -73z" />
    <glyph glyph-name="radical" unicode="&#x221a;" horiz-adv-x="649" 
d="M437 78l137 789l54 -15l-175 -1002l-112 -36l-188 427c-22 52 -65 93 -104 79l-3 7l244 92z" />
    <glyph glyph-name="infinity" unicode="&#x221e;" horiz-adv-x="858" 
d="M746 419c76 -76 76 -200 0 -275v-1c-37 -37 -86 -57 -138 -57s-101 20 -137 57l-44 44l-44 -44c-37 -37 -86 -57 -138 -57s-101 20 -137 57c-76 76 -76 199 -1 275l1 1c36 36 85 57 137 57s101 -21 138 -57l44 -44l44 44c36 36 85 57 137 57s101 -21 138 -57zM202 325
c-25 -24 -25 -64 0 -88c11 -12 27 -18 43 -18c17 0 32 6 44 18l44 44l-44 44c-12 11 -27 18 -44 18c-16 0 -32 -7 -43 -18zM564 325l-43 -44l44 -44c11 -12 27 -18 43 -18c17 0 32 6 44 18c24 24 24 64 0 88c-12 11 -27 18 -44 18c-16 0 -32 -7 -44 -18z" />
    <glyph glyph-name="integral" unicode="&#x222b;" horiz-adv-x="432" 
d="M394 793c15 -17 19 -48 10 -69c-12 -32 -49 -48 -80 -34c-32 11 -47 47 -35 79c7 16 17 29 32 33c8 4 3 16 -27 16c0 0 -66 1 -47 -208l60 -441c35 -311 -64 -379 -177 -379c-45 0 -76 10 -95 35c-13 18 -18 48 -10 69c12 33 48 49 79 35c33 -12 49 -48 36 -79
c-6 -17 -16 -29 -32 -34c-8 -3 -5 -20 23 -20c0 0 67 -3 46 209l-60 440c-41 293 66 380 177 380c45 0 79 -6 100 -32z" />
    <glyph glyph-name="approxequal" unicode="&#x2248;" horiz-adv-x="581" 
d="M334 284l-119 47c-33 13 -154 47 -181 -7l-4 1c83 193 216 137 216 137l119 -46c34 -15 154 -47 182 7l4 -1c-85 -184 -217 -138 -217 -138zM334 96l-119 47c-33 13 -154 47 -181 -7l-4 1c83 193 216 137 216 137l119 -46c34 -15 154 -47 182 7l4 -1
c-85 -184 -217 -138 -217 -138z" />
    <glyph glyph-name="notequal" unicode="&#x2260;" horiz-adv-x="542" 
d="M500 334h-150l-47 -102h197v-88h-237l-56 -122l-82 38l38 84h-117v88h158l46 102h-204v88h245l59 129l82 -38l-42 -91h110v-88z" />
    <glyph glyph-name="lessequal" unicode="&#x2264;" horiz-adv-x="611" 
d="M49 87h516v-107h-516v107zM262 385l303 -149v-133l-507 260v43l507 260v-134z" />
    <glyph glyph-name="greaterequal" unicode="&#x2265;" horiz-adv-x="612" 
d="M51 87h516v-107h-516v107zM51 236l303 149l-303 147v134l507 -260v-43l-507 -260v133z" />
    <glyph glyph-name="lozenge" unicode="&#x25ca;" horiz-adv-x="559" 
d="M301 733l208 -406l-208 -406h-45l-208 406l208 406h45zM393 327l-115 234l-115 -234l115 -234z" />
    <glyph glyph-name="zero.taboldstyle" unicode="&#xf643;" horiz-adv-x="648" 
d="M330 471c221 0 275 -116 275 -235c0 -118 -53 -245 -274 -245c-220 0 -275 127 -275 245c0 119 54 235 274 235zM331 0c21 0 61 15 61 236s-39 226 -62 226c-20 0 -61 -5 -61 -226s37 -236 62 -236z" />
    <glyph glyph-name="one.taboldstyle" unicode="&#xf644;" horiz-adv-x="518" 
d="M179 90v253c0 50 -24 53 -75 53v9l255 66v-381c0 -77 21 -81 56 -81v-9h-305v9c40 0 69 6 69 81z" />
    <glyph glyph-name="two.taboldstyle" unicode="&#xf645;" horiz-adv-x="541" 
d="M459 189h8l-47 -189h-348l110 111c115 105 129 177 110 246c-17 64 -72 103 -129 78c-34 -17 -25 -39 -18 -39c16 1 34 -6 44 -17c24 -26 24 -67 -2 -91c-25 -25 -66 -24 -90 1c-18 19 -23 45 -15 67c7 19 17 46 73 84c69 46 290 57 312 -85c19 -172 -191 -166 -250 -224
h142c34 0 79 18 100 58z" />
    <glyph glyph-name="three.taboldstyle" unicode="&#xf646;" horiz-adv-x="607" 
d="M554 -39c0 -197 -166 -226 -295 -226c-88 0 -142 28 -175 85c-16 24 -13 63 7 90c27 40 82 49 120 21c40 -28 49 -82 21 -121c-15 -20 -32 -31 -55 -34c-12 0 1 -32 81 -32c75 0 111 82 91 195c-11 63 -34 160 -156 160v9c132 22 136 165 72 211c-44 31 -137 17 -143 -36
l-10 -2c-28 87 37 190 184 190c193 0 268 -251 79 -342c109 -4 179 -90 179 -168z" />
    <glyph glyph-name="four.taboldstyle" unicode="&#xf647;" horiz-adv-x="629" 
d="M579 -48h-84v-80c0 -126 3 -128 45 -128v-9h-270v9c42 0 45 4 45 123v85l-258 -1v17l396 503l42 -9v-440h84v-70zM315 22v258l-160 -202c-43 -56 -29 -57 -9 -57z" />
    <glyph glyph-name="five.taboldstyle" unicode="&#xf648;" 
d="M129 194c294 50 437 -86 427 -244c-9 -156 -135 -215 -271 -215c-103 0 -150 31 -175 51c-23 20 -36 57 -29 91c12 47 61 77 110 66c47 -11 78 -59 66 -108c-6 -25 -18 -44 -38 -55c-11 -6 -7 -36 66 -36c88 0 142 88 116 178c-15 52 -77 151 -310 120l79 420h371
l-48 -167h-346z" />
    <glyph glyph-name="six.taboldstyle" unicode="&#xf649;" horiz-adv-x="623" 
d="M364 471c182 0 214 -130 214 -240c0 -155 -106 -240 -258 -240c-183 0 -275 128 -275 327c0 246 116 395 314 395c113 0 153 -62 159 -72c14 -22 15 -56 -2 -80c-22 -38 -70 -48 -107 -25c-37 22 -47 71 -24 107c11 18 25 26 48 30c8 2 -13 31 -74 31
c-72 0 -110 -70 -111 -326c10 60 70 93 116 93zM320 0c75 0 71 56 71 211c0 131 -14 218 -65 218c-40 0 -67 -26 -78 -83c3 -217 -3 -346 72 -346z" />
    <glyph glyph-name="seven.taboldstyle" unicode="&#xf64a;" horiz-adv-x="571" 
d="M99 462h451l-96 -165c-90 -183 -85 -404 -85 -553h-192c12 194 63 329 267 553h-275c-34 0 -80 -18 -101 -58h-9z" />
    <glyph glyph-name="eight.taboldstyle" unicode="&#xf64b;" horiz-adv-x="582" 
d="M282 497l92 -47c23 17 33 59 33 115c0 102 -56 139 -112 139c-49 0 -83 -37 -90 -81c-6 -44 15 -96 77 -126zM326 244l-125 68c-26 -24 -28 -67 -28 -134c0 -124 44 -178 124 -178c63 0 103 41 111 92s-17 113 -82 152zM297 -9c-176 0 -253 60 -253 179
c0 101 88 139 132 155c-71 49 -120 108 -120 198c0 102 84 190 239 190c150 0 209 -63 209 -148c0 -88 -96 -114 -120 -120c121 -54 168 -148 168 -238c0 -130 -72 -216 -255 -216z" />
    <glyph glyph-name="nine.taboldstyle" unicode="&#xf64c;" horiz-adv-x="601" 
d="M251 -9c-182 0 -213 134 -213 244c0 155 106 236 258 236c196 0 275 -127 275 -326c0 -246 -49 -410 -314 -410c-113 0 -154 63 -159 73c-14 22 -15 57 2 83c23 38 72 49 111 25c37 -23 48 -73 24 -110c-12 -18 -35 -28 -55 -31c-8 -2 15 -31 77 -31
c125 0 109 88 111 343c-9 -65 -71 -96 -117 -96zM296 462c-75 0 -71 -52 -71 -207c0 -131 14 -222 59 -222c50 0 74 37 84 82c-3 217 3 347 -72 347z" />
    <glyph glyph-name="dollar.taboldstyle" unicode="&#xf653;" horiz-adv-x="584" 
d="M290 0c107 0 137 133 17 222l-17 11v-233zM281 492v212c-108 0 -140 -120 -10 -205zM425 397c132 -87 167 -215 92 -324c0 0 -54 -82 -227 -82v-122h-9v122c-188 2 -260 51 -260 51v192h9c16 -68 99 -227 251 -234v238l-128 81c-142 89 -177 211 -92 318
c0 0 56 76 220 76v122h9v-122c164 -2 227 -46 227 -46v-168h-9c-20 72 -65 200 -218 205v-218z" />
    <glyph glyph-name="cent.taboldstyle" unicode="&#xf654;" horiz-adv-x="582" 
d="M338 94v368c-47 -13 -68 -94 -68 -216c0 -78 23 -129 68 -152zM376 384c8 20 21 33 38 40c11 4 3 38 -67 38v-372c51 -24 136 -9 154 43l7 -3c0 -57 -57 -128 -161 -139v-109h-9v109c-147 0 -264 83 -264 242c0 135 81 235 264 238v122h9v-122c78 0 129 -34 153 -61
c17 -18 23 -49 15 -76c-13 -39 -57 -59 -95 -44c-39 13 -59 56 -44 94z" />
    <glyph glyph-name="dollar.oldstyle" unicode="&#xf724;" horiz-adv-x="584" 
d="M290 0c107 0 137 133 17 222l-17 11v-233zM281 492v212c-108 0 -140 -120 -10 -205zM425 397c132 -87 167 -215 92 -324c0 0 -54 -82 -227 -82v-122h-9v122c-188 2 -260 51 -260 51v192h9c16 -68 99 -227 251 -234v238l-128 81c-142 89 -177 211 -92 318
c0 0 56 76 220 76v122h9v-122c164 -2 227 -46 227 -46v-168h-9c-20 72 -65 200 -218 205v-218z" />
    <glyph glyph-name="zero.oldstyle" unicode="&#xf730;" horiz-adv-x="648" 
d="M330 471c221 0 275 -116 275 -235c0 -118 -53 -245 -274 -245c-220 0 -275 127 -275 245c0 119 54 235 274 235zM331 0c21 0 61 15 61 236s-39 226 -62 226c-20 0 -61 -5 -61 -226s37 -236 62 -236z" />
    <glyph glyph-name="one.oldstyle" unicode="&#xf731;" horiz-adv-x="518" 
d="M179 90v253c0 50 -24 53 -75 53v9l255 66v-381c0 -77 21 -81 56 -81v-9h-305v9c40 0 69 6 69 81z" />
    <glyph glyph-name="two.oldstyle" unicode="&#xf732;" horiz-adv-x="541" 
d="M459 189h8l-47 -189h-348l110 111c115 105 129 177 110 246c-17 64 -72 103 -129 78c-34 -17 -25 -39 -18 -39c16 1 34 -6 44 -17c24 -26 24 -67 -2 -91c-25 -25 -66 -24 -90 1c-18 19 -23 45 -15 67c7 19 17 46 73 84c69 46 290 57 312 -85c19 -172 -191 -166 -250 -224
h142c34 0 79 18 100 58z" />
    <glyph glyph-name="three.oldstyle" unicode="&#xf733;" horiz-adv-x="607" 
d="M554 -39c0 -197 -166 -226 -295 -226c-88 0 -142 28 -175 85c-16 24 -13 63 7 90c27 40 82 49 120 21c40 -28 49 -82 21 -121c-15 -20 -32 -31 -55 -34c-12 0 1 -32 81 -32c75 0 111 82 91 195c-11 63 -34 160 -156 160v9c132 22 136 165 72 211c-44 31 -137 17 -143 -36
l-10 -2c-28 87 37 190 184 190c193 0 268 -251 79 -342c109 -4 179 -90 179 -168z" />
    <glyph glyph-name="four.oldstyle" unicode="&#xf734;" horiz-adv-x="629" 
d="M579 -48h-84v-80c0 -126 3 -128 45 -128v-9h-270v9c42 0 45 4 45 123v85l-258 -1v17l396 503l42 -9v-440h84v-70zM315 22v258l-160 -202c-43 -56 -29 -57 -9 -57z" />
    <glyph glyph-name="five.oldstyle" unicode="&#xf735;" 
d="M129 194c294 50 437 -86 427 -244c-9 -156 -135 -215 -271 -215c-103 0 -150 31 -175 51c-23 20 -36 57 -29 91c12 47 61 77 110 66c47 -11 78 -59 66 -108c-6 -25 -18 -44 -38 -55c-11 -6 -7 -36 66 -36c88 0 142 88 116 178c-15 52 -77 151 -310 120l79 420h371
l-48 -167h-346z" />
    <glyph glyph-name="six.oldstyle" unicode="&#xf736;" horiz-adv-x="623" 
d="M364 471c182 0 214 -130 214 -240c0 -155 -106 -240 -258 -240c-183 0 -275 128 -275 327c0 246 116 395 314 395c113 0 153 -62 159 -72c14 -22 15 -56 -2 -80c-22 -38 -70 -48 -107 -25c-37 22 -47 71 -24 107c11 18 25 26 48 30c8 2 -13 31 -74 31
c-72 0 -110 -70 -111 -326c10 60 70 93 116 93zM320 0c75 0 71 56 71 211c0 131 -14 218 -65 218c-40 0 -67 -26 -78 -83c3 -217 -3 -346 72 -346z" />
    <glyph glyph-name="seven.oldstyle" unicode="&#xf737;" horiz-adv-x="571" 
d="M99 462h451l-96 -165c-90 -183 -85 -404 -85 -553h-192c12 194 63 329 267 553h-275c-34 0 -80 -18 -101 -58h-9z" />
    <glyph glyph-name="eight.oldstyle" unicode="&#xf738;" horiz-adv-x="582" 
d="M282 497l92 -47c23 17 33 59 33 115c0 102 -56 139 -112 139c-49 0 -83 -37 -90 -81c-6 -44 15 -96 77 -126zM326 244l-125 68c-26 -24 -28 -67 -28 -134c0 -124 44 -178 124 -178c63 0 103 41 111 92s-17 113 -82 152zM297 -9c-176 0 -253 60 -253 179
c0 101 88 139 132 155c-71 49 -120 108 -120 198c0 102 84 190 239 190c150 0 209 -63 209 -148c0 -88 -96 -114 -120 -120c121 -54 168 -148 168 -238c0 -130 -72 -216 -255 -216z" />
    <glyph glyph-name="nine.oldstyle" unicode="&#xf739;" horiz-adv-x="601" 
d="M251 -9c-182 0 -213 134 -213 244c0 155 106 236 258 236c196 0 275 -127 275 -326c0 -246 -49 -410 -314 -410c-113 0 -154 63 -159 73c-14 22 -15 57 2 83c23 38 72 49 111 25c37 -23 48 -73 24 -110c-12 -18 -35 -28 -55 -31c-8 -2 15 -31 77 -31
c125 0 109 88 111 343c-9 -65 -71 -96 -117 -96zM296 462c-75 0 -71 -52 -71 -207c0 -131 14 -222 59 -222c50 0 74 37 84 82c-3 217 3 347 -72 347z" />
    <glyph glyph-name="cent.oldstyle" unicode="&#xf7a2;" horiz-adv-x="582" 
d="M338 94v368c-47 -13 -68 -94 -68 -216c0 -78 23 -129 68 -152zM376 384c8 20 21 33 38 40c11 4 3 38 -67 38v-372c51 -24 136 -9 154 43l7 -3c0 -57 -57 -128 -161 -139v-109h-9v109c-147 0 -264 83 -264 242c0 135 81 235 264 238v122h9v-122c78 0 129 -34 153 -61
c17 -18 23 -49 15 -76c-13 -39 -57 -59 -95 -44c-39 13 -59 56 -44 94z" />
    <glyph glyph-name="fi" unicode="&#xfb01;" horiz-adv-x="645" 
d="M608 8v-8h-250v8c38 11 39 54 39 105v260c0 35 2 80 -36 80h-108v-340c0 -55 5 -95 41 -105v-8h-250v8c38 11 39 54 39 105v340h-65v9h65v0c0 224 133 283 262 283c68 0 173 -23 204 -78c15 -28 13 -68 -5 -98c-26 -38 -79 -49 -118 -24c-40 26 -51 78 -24 118
c11 19 29 31 50 36c25 6 -29 37 -108 37c-83 0 -91 -109 -91 -274v0h108c143 0 206 30 206 30v-379c0 -55 5 -96 41 -105z" />
    <glyph glyph-name="fl" unicode="&#xfb02;" horiz-adv-x="621" 
d="M606 8v-8h-250v8c38 11 39 54 39 105v519c0 35 -3 58 -35 72c-98 27 -117 -57 -117 -242v0h107v-9h-107v-340c0 -55 5 -95 41 -105v-8h-250v8c38 11 39 54 39 105v340h-65v9h65v80c0 177 122 203 171 203c0 0 75 4 116 -32l205 33v-633c0 -55 5 -96 41 -105z" />
    <glyph glyph-name="NULL" horiz-adv-x="0" 
 />
    <glyph glyph-name="CR" horiz-adv-x="278" 
 />
    <glyph glyph-name="two.superior" horiz-adv-x="280" 
d="M227 476h9l-27 -97h-181l91 122c110 161 -87 167 -70 82l-8 -4c-29 55 11 125 90 125c46 0 87 -40 87 -81c0 -70 -90 -127 -115 -158l-11 -15h94c16 0 31 8 41 26z" />
    <glyph glyph-name="one.superior" horiz-adv-x="232" 
d="M162 425c0 -23 1 -36 17 -36v-9h-119v9c19 0 21 14 21 36v193c0 35 -40 4 -40 4l-7 8l86 74h42v-279z" />
    <glyph glyph-name="a.superior" horiz-adv-x="328" 
d="M155 510v72c-43 -9 -43 -38 -43 -63c0 0 0 -32 21 -32c9 0 17 11 22 23zM280 495l8 -3c-7 -24 -36 -39 -69 -39c0 0 -56 0 -62 41c-8 -25 -35 -41 -72 -41c-21 0 -66 9 -66 54c0 52 43 62 136 84v34c0 54 -29 82 -66 63c0 0 -12 -7 5 -12c9 -2 15 -9 19 -19
c8 -20 -1 -41 -20 -49c-20 -7 -41 2 -49 21c-5 13 -2 28 6 39c6 8 15 17 32 26c20 11 53 11 53 11c69 0 107 -43 107 -105v-78s0 -38 26 -37c0 0 9 1 12 10z" />
    <glyph glyph-name="three.superior" horiz-adv-x="289" 
d="M249 477c0 -89 -76 -101 -134 -101c-40 0 -64 13 -79 39c-6 11 -6 28 3 40c12 18 37 22 55 10c17 -13 22 -37 9 -54c-6 -10 -15 -15 -25 -17c-6 0 0 -14 37 -14c34 0 50 37 41 88c-5 29 -15 72 -71 72v4c60 10 62 74 33 94c-20 14 -61 9 -65 -17l-4 -1
c-11 35 16 84 83 84c87 0 121 -109 35 -151c50 -2 82 -40 82 -76z" />
    <glyph glyph-name="o.superior" horiz-adv-x="344" 
d="M156 704c87 0 128 -49 128 -127c0 -77 -41 -125 -128 -125s-128 48 -128 125c0 78 41 127 128 127zM156 461c42 0 39 33 39 116c0 84 1 118 -39 118c-41 0 -39 -34 -39 -118c0 -83 -1 -116 39 -116z" />
    <glyph glyph-name="uni0218" unicode="&#x218;" horiz-adv-x="616" 
d="M439 397c132 -87 167 -215 92 -324c0 0 -54 -82 -227 -82c-194 0 -269 51 -269 51v192h9c16 -68 103 -234 260 -234c107 0 137 133 17 222l-154 97c-142 89 -177 211 -92 318c0 0 55 76 219 76c171 0 237 -46 237 -46v-168h-9c-20 72 -68 205 -228 205
c-108 0 -139 -120 -9 -205zM375 -59c63 -63 7 -173 -28 -222c-14 -22 -47 -53 -94 -80l-7 10c54 43 72 112 54 115c-25 2 -50 10 -70 29c-41 41 -41 106 -1 148c41 40 106 40 146 0z" />
    <glyph glyph-name="uni0219" unicode="&#x219;" horiz-adv-x="444" 
d="M313 279c91 -55 114 -168 59 -234c0 0 -38 -54 -154 -54c-121 0 -178 34 -178 34v131h9c20 -93 103 -156 169 -156c71 0 87 83 11 133l-101 61c-94 62 -119 161 -58 229c0 0 37 48 151 48c115 0 163 -28 163 -28v-102h-9c-18 90 -96 121 -154 121c-65 0 -96 -65 -9 -120z
M289 -59c63 -63 7 -173 -28 -222c-14 -22 -47 -53 -94 -80l-7 10c54 43 72 112 54 115c-25 2 -50 10 -70 29c-41 41 -41 106 -1 148c41 40 106 40 146 0z" />
    <glyph glyph-name="uni021B" unicode="&#x21b;" horiz-adv-x="399" 
d="M302 -59c63 -63 7 -173 -28 -222c-14 -22 -47 -53 -94 -80l-7 10c54 43 72 112 54 115c-25 2 -50 10 -70 29c-41 41 -41 106 -1 148c41 40 106 40 146 0zM320 64c29 0 49 16 61 30l6 -4c-12 -53 -70 -99 -144 -99c-79 0 -169 32 -169 153v309h-63v9h63v134l168 21v-155
h129v-9h-129v-306c0 -56 20 -83 78 -83z" />
    <glyph glyph-name="uni021A" unicode="&#x21a;" horiz-adv-x="762" 
d="M448 -59c63 -63 7 -173 -28 -222c-14 -22 -47 -53 -94 -80l-7 10c54 43 72 112 54 115c-25 2 -50 10 -70 29c-41 41 -41 106 -1 148c41 40 106 40 146 0zM20 704h715v-225h-8c-5 115 -153 216 -236 216h-11v-582c0 -68 5 -104 45 -104v-9h-295v9c40 0 45 36 45 104v582
h-11c-84 0 -231 -101 -236 -216h-8v225z" />
    </font>
</defs>
</svg>
